<?xml version="1.0" encoding="UTF-8"?>
<svg version="1.1" viewBox="0 0 2048 1611" width="671" height="528" xmlns="http://www.w3.org/2000/svg">
<path transform="translate(0)" d="m0 0h2048v1611h-2048z" fill="#FAFAFA"/>
<path transform="translate(0)" d="m0 0h1535l-1 76h14v1h-14v75l74-1 1-72 2 1v74l-1 74-2 2h-74v75h73v1l-22 1-51-1v75h11v1h-11v76l3 1h-3v75h74l1 2v19l-1 55h-74v-2h-2v-72h-75l1 38v16l-2 1-1-26v-28h-30l-2 1-9-16-14-24-15-26-8-14-10-17-11-19-14-24-16-28-14-24-16-28-13-22-16-28-14-24-15-26-13-23-8-13-3 1-16 28-12 20-6 11-45 78-14 24-16 28-9 15-13 23-9 15-14 25-16 27-16 28-10 17-4-2-9-16-14-24-12-21-10-17-30-52-22-38-14-24-12-21-10-17-16-28-14-24-12-21-20-34v-2l-2 1-6 11-14 25-8 13-6 11-14 24-15 26-9 15-6 11-15 26-11 19-14 24-30 52-16 28-10 17-15 26-9 15-13 24-16 27-13 23-11 19-17 29-60 104-11 19-17 29-16 28-21 36h394l10-19 8-13 6-10 13-23 15-26 14-24 12-21 15-26 9-15 60-104 14-24 11-19 8-13 3-2 5 8 13 22 30 52 10 17 8 14 14 24 16 28 28 48 11 19 5 9 14 24 30 52 14 25 1 2 11 1v47h-47l-27-1-1-39-1 39-4 1-71-1-1-15-1 15h-74l-1-23-1 23-74 1-1-1v-50l235-1-6-10-8-14-10-17-15-26-14-24-15-26-20-35-10-17-15-26-16-28-7-12v-3l-5 5-16 27-15 27-8 13-16 28-14 24-8 14-10 17-16 28-14 24-12 21-6 10 40 1v43l-1 8h-70l-4 1v75h76v1h-76v75h11l2 2h-14v5l-2-4-74-1v31h-2v-31h-50l-10-1v-1h61l-1-74-74-1v77h-76l-1 98-1 53-10 1 10 1v74h-75v-71l1-1 58-1-7-44-16-103-10-64-4-24-2-1-1 4-13 18-16 23-12 17-11 16-10 14-11 16-20 28-4-4-11-15-13-19-13-18-9-13-28-40-10-14-7-9-3-3-12 79-12 77-11 73-1 6 5 1 50 1-1 71h-59v2h59v26l1-26h75l1 53 1-53h74v74h-14v-17h-5v35l1 14 3 8 6 5 11 2 11-4 7-8h1l1 11h3l1-45v-18h-4l-1 17h-19v-74h75v57l-3 1-10-1-6 3-5 6h-1v-8h-3l-1 18v44h5v-44h69l10 1v60l-2 5-6 4h-9l-12-5v3l4 2 8 3h10l6-3 4-6 1-4 1-59 19-1v22l5 10 7 7 10 5h18l10-5 7-7 4-8 1-4v-19l2-1h10l1-76h75v56l-2 2-1 18 1 40-1 4h5v-43l2-8 4-6 5-3h13l-6-3h-7l-6 4-5 6h-1v-28l1-39h75v27l-1 30h2v-57h75l1 65v-32l1-33h74v74h-14l1-6 5-11-5 3-7 15-5 12-8 18-3 6-2-2-5-13-8-18-9-20-4-1 11 25 12 27 2 5-1 6-9 21-4 9 4-1 12-26 11-25 9-21 4-1h13v52l-5 12-1 2 4-2 10-23 4-9h-5l-1 6-3 6h-1v-44h67l8 1 1 70v-68l1-2h17l2 2v41h5v-36l3-7 8-15 20-35 1-2-5 1-10 19-12 21-5 9-4-1-13-23-8-15-5-10-6-2 6 9 8 16 13 23 1 3-18-1h-75v-74h75v28l1 1v-29h75l1 57-12 6-8 9-3 8-1 9 2 12 5 8 1 3 4 2 6 4 5 2h17l12-6 7-8 4-11v-10l-2-10-6-8v-2l-4-2-6-4-7-2-13-1v-56h75v20l-1 54h-13v-17h-5v19l1 27 2 9 5 6 9 3 9-1 8-5 6-7h1v9l-1 3h5v-63l-4 1-1 16h-20v-74h75l1 55 1-55h75v74h-9l-14-41-3-8h-3l3 10 13 37 1 4 13 38 1 8 2-1 12-36 14-41 4-9 2 4 11 34 3 9 13 38 1 1 10-30 9-26 13-37v-3h-3l-10 28-4 13-2 1v-67h75l1 56-4 1 4 9-1 8-12 1-2-2-3-9-6-5-5-2h-11l-11 4-5 5 5-1 7-4 4-1h10l6 3 4 4 1 3 1 16-11-3h-13l-11 4-6 5-2 5v10l3 6 6 5 5 2h14l9-5 5-7h1v12h3l1-43 1-1h13v74l-1 1-47 1h47l1 8-1 67h-71l71 1v75l-31 1h-24l56 1v7h-1609z" fill="#E8E8E9"/>
<path transform="translate(0)" d="m0 0h82l1 1525h73l1-4 1-71h73l2 1 1 64v-78l1-64-1-1 1-74 28-1h-28l-1-1 1-74 32-1-32-1v-74h74l1 7 1-7h32l-1 13-9 59-1 6 5 1 50 1-1 71h-59v2h59v26l1-26h75l1 53 1-53h74v74h-14v-17h-5v35l1 14 3 8 6 5 11 2 11-4 7-8h1l1 11h3l1-45v-18h-4l-1 17h-19v-74h75v57l-3 1-10-1-6 3-5 6h-1v-8h-3l-1 18v44h5v-44h69l10 1v60l-2 5-6 4h-9l-12-5v3l4 2 8 3h10l6-3 4-6 1-4 1-59 19-1v22l5 10 7 7 10 5h18l10-5 7-7 4-8 1-4v-19l2-1h10l1-76h75v56l-2 2-1 18 1 40-1 4h5v-43l2-8 4-6 5-3h13l-6-3h-7l-6 4-5 6h-1v-28l1-39h75v27l-1 30h2v-57h75l1 65v-32l1-33h74v74h-14l1-6 5-11-5 3-7 15-5 12-8 18-3 6-2-2-5-13-8-18-9-20-4-1 11 25 12 27 2 5-1 6-9 21-4 9 4-1 12-26 11-25 9-21 4-1h13v52l-5 12-1 2 4-2 10-23 4-9h-5l-1 6-3 6h-1v-44h67l8 1 1 70v-68l1-2h17l2 2v41h5v-36l3-7 8-15 20-35 1-2-5 1-10 19-12 21-5 9-4-1-13-23-8-15-5-10-6-2 6 9 8 16 13 23 1 3-18-1h-75v-74h75v28l1 1v-29h75l1 57-12 6-8 9-3 8-1 9 2 12 5 8 1 3 4 2 6 4 5 2h17l12-6 7-8 4-11v-10l-2-10-6-8v-2l-4-2-6-4-7-2-13-1v-56h75v20l-1 54h-13v-17h-5v19l1 27 2 9 5 6 9 3 9-1 8-5 6-7h1v9l-1 3h5v-63l-4 1-1 16h-20v-74h75l1 55 1-55h75v74h-9l-14-41-3-8h-3l3 10 13 37 1 4 13 38 1 8 2-1 12-36 14-41 4-9 2 4 11 34 3 9 13 38 1 1 10-30 9-26 13-37v-3h-3l-10 28-4 13-2 1v-67h75l1 56-4 1 4 9-1 8-12 1-2-2-3-9-6-5-5-2h-11l-11 4-5 5 5-1 7-4 4-1h10l6 3 4 4 1 3 1 16-11-3h-13l-11 4-6 5-2 5v10l3 6 6 5 5 2h14l9-5 5-7h1v12h3l1-43 1-1h13v74l-1 1-47 1h47l1 8-1 67h-71l71 1v75l-31 1h-24l56 1v7h-1609z" fill="#FAFBFC"/>
<path transform="translate(817,181)" d="m0 0h2l16 28 13 22 16 28 30 52 10 17 15 26 12 21 14 24 15 26 28 48 16 28 12 20h2l11-20 28-48 16-28 14-24 13-23 9-15 30-52 11-19 15-26 14-24 12-21 15-26 8-13h4l13 22 14 25 10 17 14 24 16 28 17 29 12 21 14 24 30 52 28 48 16 28 14 24 14 25 28 48 28 49 14 24 15 26 17 29 13 23 14 24 15 26 12 21 17 29 11 19v1l-399 1-13-23-16-28-14-24-15-26-6-9-5-10-14-24-16-28-14-24-15-26-14-24-12-21-10-17-15-26-14-24-6-10-4 4-14 24-10 17-16 28-10 17-12 21-14 24-15 26-14 24-12 21-15 26-14 24-15 26-8 14-20 34-5 9h-394v-3l17-29 14-24 10-18 13-22 15-26 14-24 16-28 11-19 14-24 15-26 14-24 13-23 13-22 14-25 9-16 13-22 11-19 14-24 16-28 15-26 14-24 8-14 14-24 12-20 6-11 16-28 15-26 7-11 6-11 13-23 9-15z" fill="#DE5D2B"/>
<path transform="translate(312)" d="m0 0h992v21l-1 55h-75v-61l-1 60-1 1h-74l-1-2-1 2h-229l2 1h227l1 2-1 73-1 1h-114l115 1v75h-74l-1-1v-45l-1 40-1 6h-151v-43l1-32 77-1h-77l-1-55-1 54-24 1h-51v-77l-1-3-1 4v76h-75v-116l-1 40v76h-21l-55-1-54 1 54 1v32l-1 43h-76l63 1 13 1v75l-74-1-1-73-1 73h-76l1 1h74l1 1v74l-1 1-75-1-3 1 3 1v74l-4 1-71-1-1-2v-51l-1 53-58 1 58 1v75h-74l-1-1v-520l-1 64v75l-69 1 69 1v151h-75v-304z" fill="#FDFDFD"/>
<path transform="translate(1914)" d="m0 0h134v1611h-210v-7h-69l1-2h68l-1-9v-29l1-37h-23l1-2 23-1 2 1h73v-74h-64l-9-1v-1h73v-75h-74v55l-1 18h-1v-73l-2-1h2v-75h-16l2-2h14v-74h-72l1-2h71l1-2v2h75v-74h-48v-2h48v-75h-74l-1 73h-1l-1-74 1-75h-73l1-2 73-1 1 1v53l-1 24h75v-75h-73v-2h73v-74h-68l-5-1v-1h73v-75l-34 1-39-1v-1h73v-75h-73v-1h73v-75h-73v-2h73v-74h-60l-13-1v-1h73v-75h-73v-1h73v-75h-73l1-2h72v-74h-71l-2-2h73l-1-74h-45l-27-1v-1h73v-75h-73v-1h73v-75h-73v-2h73v-74h-66l-7-1v-1h73z" fill="#E9E9EA"/>
<path transform="translate(999,917)" d="m0 0h74l2 24v51h10v2h-10l1 74 1 2h-2v75l27-1 5 1v1h-32v76l2-1h24l7 1v1h-33v74h75v-68h-12l-18-4-10-5-9-7-6-8-4-10-1-5v-12l3-12 5-9 11-11 14-7 17-4 12-1 21 2 16 4 6 2-2-17-4-8-7-5-11-2-18 1-15 4-17 7-3-4-8-16-6-11v-2l12-6 17-6 16-4 18-2h11l17 2 16 5 12 6 11 10 7 14 1 9 1 29-1 75h61v-19h1v19h31l-3 2h-27l-1 74h75v-66l-12-1-19-5-16-7-13-8-10-8-8-7-9-11-9-14-7-17-3-8-3-24v-19l3-21 6-18 9-17 11-14 5-6 9-7 13-9 19-9 21-6 13-2 21-1 21 2 16 4 15 6 9 5 10 7 15 13 9 10 4 7-9 6-29 15-7 4-6-1-7-9-7-7-9-6-10-4-15-2-17 1-17 5-10 6-10 8-9 13-6 15-2 19 1 18 5 17 6 11 8 10 10 8 10 5 8 3 12 2h18l14-3 12-6 6-5 9-11 7-15-10 1h-45l-5-2v-41l4-1h110l3 1-1 26-4 21-6 17-7 14-10 14-17 17-20 12-20 7-18 3h-28v65h74l-1-76h78v-53h2v53h44l-3 2h-41v24l-1 50h75v-68l1-2h-8l-15-4-12-5-15-10-11-12-7-11-4-10-3-12v-24l4-16 7-14 11-13 5-5 13-8 11-5 9-3 24-3 21 2 17 5 16 8 9 7 9 9 7 11 5 12 4 20-1 15-4 16-5 12-11 14-9 8-13 8-16 6-17 3h-20v69l74-1v-24l2-1v26h72v1l-6 1h-66v51h-1v-51h-75l1 60 18 41 4 9 5-10 16-38 4-5 3 1-4 10-4 9-15 34-15 33-5 8h-8v75l9-1 63 1v1h-72v76l27-1 15 1v1h-42v7h-1v-7h-57l1-2h55v-75h-72l1-2 71 1v-75l-6 1h-41l-26-1v-1l73-1v-71l1-3-13 1-1 43-4 1-1-1v-10l-6 7-8 4h-14l-8-4-6-7-1-3v-10l3-6 6-5 11-4h13l11 4-1-2-1-14-3-5-4-3-3-1h-10l-10 4-3 2-4-1 5-5 8-4 4-1h11l8 4 5 6 3 8h12v-8l-3-6v-3l3-1v-56h-75l1 14v52l12-36 3-6 4 1-1 5-14 41-15 43-2 8-4-4-13-40v-2h-11v-1h10l-13-39-14 40-14 41-2 5h-2l-6-20-8-23v-3l-4-1h3l-16-46-1-4 4-1 4 9 13 39v2h9l-1-21v-52l-74-1v55l-2 2v-57h-75v74h20v-16l5-1 1 19-1 44h-5v-10l-8 8-6 3-9 1-9-3-6-7-2-9-1-28 1-18h5v17h13v-73l-74-1v56h13l9 3 8 6 7 10 2 10v10l-4 11-8 9-12 6h-17l-10-5-5-4-6-9-2-5-1-10 2-11 4-8 7-7 8-4 3-1v-57h-75l1 9v20l-2 2-1-4 1-27h-75v74h75v-26h1v26h16l-12-22-9-16-4-7-2-5 6 1 6 11 15 28 6 10h3l7-14 14-24 5-10 6-2v3l-14 25-16 28-1 4-1 36h-5l-1-41-1-1-17-1v72l-2 1v-73l-75-1 1 43 4-11h5l-1 5-8 17-4 10-2 2h-3l2-6 3-8 1-52-16 1-13 30-13 29-7 14-5 1 4-10 10-23-1-6-7-17-11-24-5-11v-3l5 1 7 16 6 13 8 18 2 5 14-32v-3l2-1 6-14 3-3h3l-3 9-3 8h14v-74h-74v66l-2-1v-65h-75v57h-2v-30l1-27h-75v66l7-8 4-2h7l6 3 1 2h-14l-6 4-3 6-1 6-1 43h-5l-1-45 1-17 2-2 1-56h-75v108h-1v-32l-12 1 1 5v14l-3 9-9 10-8 5-3 1h-18l-10-5-8-8-5-10v-21h-18v59l-3 8-6 5-3 1h-10l-9-4-3-2v-3l5 1 7 3h9l6-4 1-4 1-60h-55l-24-1v44h-5l-1-45 1-17 4-1 1 3v5l5-6 6-3 12 1 1-57h-75v74h19v-10l1-7h4l1 19-1 44-4 1-1-1-1-10-7 8-11 4-11-2-7-6-3-8-1-14v-21l1-14h5v17h14v-74h-74v53l-2 2v-55h-75v31h-1l-1-5v-19l1-7h-59v-2l58-1 1-63 1-7h-50l-6-2 12-79 12-77 12-79h3l10 13 12 17 13 19 12 17 10 14 12 17 11 16 15 21 4-4 9-13 12-17 11-16 12-17 13-19 8-11 11-16 13-18 2-4 3 1 9 56 7 45 15 97 6 38-59 1-1 71h75v-74h-12l2-2h10v-53h2v53h48v1l-5 1h-43v74h74v-68h2v68h75v-74h-19l-1-2h20v-17h1v17h71l-3 2h-67l-1 74h75v-75l-11-7-10-8-9-12-6-12-4-15-1-7v-20l2-14 5-14 7-12 8-9 15-11 14-6 10-2h21l13 4 10 5 9 7 6 7 2 1v-124l1-1h48l1 22-1 231h-49l-1-21-11 11-10 7-14 5-15 2-16-2-12-4v74l74-1 1-83 2 1v49l-1 34 76-1 75 1v-74h-8l4-2h4v-75l-11 1v78h-48l-1-5v-144h49v69h11v-75l-57-1-17-1v-75h23l-23-1zm74 24m-2 127m6 0m72 381m-2 1 2 1z" fill="#E8E8E9"/>
<path transform="translate(817,181)" d="m0 0h2l16 28 13 22 16 28 30 52 10 17 15 26 12 21 14 24 15 26 28 48 16 28 12 20v3l-4 5-14 24-10 17-16 28-10 17-12 21-14 24-15 26-14 24-12 21-15 26-14 24-15 26-8 14-20 34-5 9h-394v-3l17-29 14-24 10-18 13-22 15-26 14-24 16-28 11-19 14-24 15-26 14-24 13-23 13-22 14-25 9-16 13-22 11-19 14-24 16-28 15-26 14-24 8-14 14-24 12-20 6-11 16-28 15-26 7-11 6-11 13-23 9-15z" fill="#1F8CC0"/>
<path transform="translate(1019,626)" d="m0 0h2l6 12 14 24 14 25 10 17 12 20 11 20 16 27 14 25 13 22 14 24 9 16 4 7h-236l1 50h74v-23l1-21h1v44h74v-15l1-32h1v47h74l1-46h1l1 7v39h27l47 1v-47h-10v-1l399-1v2h-387v46h75v-35l2-1v26l-1 10h75l1-35h1v35h75v-35h1v35h75v-39l1-5h1v44h34l40 1v-17l1-28h1v44h21l36 1v1h-57l-1 4-1-3-74-1v63l-1 6h-1v-69h-74l-1 37-2-2 1-35h-75v76l-9 2-21 5-15 6-15 8-10 8-7 5-9 11-9 13-8 17-4 13-3 21v19l2 16 1 9 4 10 7 16 11 16 9 10 14 11 13 8 16 7 19 5 12 2v66h-75v-74l1-1h27l-29-1h-61v-76l-1-28-2-12-6-11-10-9-14-7-14-4-17-2h-11l-18 2-23 6-19 8-3 1 10 19 6 12h4l17-7 12-3 18-1 11 2 8 6 4 8 1 17-9-2-13-3-22-2-17 2-16 5-10 6-10 10-5 10-2 10v12l3 11 5 8 5 5 9 7 10 4 15 3 12 1v68h-75v-74l26-1h-26v-76l23-1h-23v-75-2-74h10v-2h-10l-1-51-1-11v-13h-74v75h23l3 2h-25l-1 74h17l55 1 2 1v75h-11v-69h-49l1 119v29l48 1-1-8 1-70 3-1h8v75l-4 1 4 1v74h-151v-83l-1 83h-75v-74l7 1 5 2 18 2 13-2 16-6 11-9 9-9v23h49v-253l-48 1-1 124-4-2-6-7-14-9-11-4-5-1h-21l-13 3-14 7-14 11-9 12-6 13-3 12-1 9v20l3 16 5 13 7 11 5 6 12 9 9 6-1 75h-75v-74l1-1h67l-69-1-19 1 19 1v74h-75v-68h-2v68h-74v-74l43-1-43-1-1-53v-82l1-16h76v-77h74l1 1v74l-51 1 50 1v31h2v-31h74 2l12-1-11-1v-151l4-2 70 1 1-51h-41l6-11 10-18 10-17 15-26 16-28 6-10 15-26 14-24 11-19 12-21 15-26 7-11z" fill="#E9E9EA"/>
<path transform="translate(82)" d="m0 0h74l1 1v75l-70 1h62l8 1v74h-74v2h74v74 2 75 2 74l-73 1 73 1v74l-73 1 73 1v151l-63 1h62l1 1v74h-74v2h74v74l-18 1 18 1v151l-71 1 71 1v74h-74v2h74v74 2 75l-60 1h59l1 1v74h-74v2h74v74l-67 1 67 1v151l-69 1 69 1v70l-1 4-74 1z" fill="#FEFEFE"/>
<path transform="translate(1993)" d="m0 0h55v1602l-7 1h-49v-1550z" fill="#FDFDFD"/>
<path transform="translate(846,917)" d="m0 0h74l1 1v53l1-54h75v75l-19 1 19 1v74l-17 1 17 1v75l-19 1 19 1v150h-75v-83l-1 83h-75v-74l7 1 5 2 18 2 13-2 16-6 11-9 9-9v23h49v-253l-48 1-1 124-4-2-6-7-14-9-11-4-5-1h-21l-13 3-14 7-14 11-9 12-6 13-3 12-1 9v20l3 16 5 13 7 11 5 6 12 9 9 6-1 75h-75v-74l1-1h67l-69-1-19 1 19 1v74h-75v-68h-2v68h-74v-74l43-1-43-1-1-53v-82l1-16h76v-77h74l1 1v74l-51 1 50 1v31h2v-31h74 2l12-1-11-1z" fill="#FDFDFD"/>
<path transform="translate(1840)" d="m0 0h74l1 1v19l-1 56-66 1 66 1v74h-73v2h73v151l-46 1h45l1 1v74l-71 1 71 1v74l-25 1h-47l72 1v151l-60 1 60 1v74h-73v2h73v151l-26 1h26v75l-68 1 68 1v74h-73v2h73v75h-75v-937z" fill="#FEFEFE"/>
<path transform="translate(235)" d="m0 0h74l1 1v75 2 74l-72 1 72 1v74 2 74 3 74 2 74l-72 1 72 1v74 3 74 2 74l-70 1 70 1v74l-33 1 33 1v74 3 18l-1 56-55 1 55 1v75h-46l-29-1v-853z" fill="#FEFEFE"/>
<path transform="translate(1215,181)" d="m0 0 3 1 13 22 14 25 10 17 14 24 16 28 17 29 12 21 14 24 30 52 28 48 16 28 11 19-1 4-2 1h-392l1-5 14-25 10-17 14-24 16-28 14-24 13-23 9-15 30-52 11-19 15-26 14-24 12-21 15-26 8-13z" fill="#B93234"/>
<path transform="translate(1415,524)" d="m0 0 3 4 30 52 10 17 28 49 14 24 15 26 17 29 13 23 14 24 15 26 12 21 17 29 11 19v1h-396l1-6 7-11 11-19 30-52 10-17 14-24 16-28 14-24 16-28 14-24 15-26 11-19 14-24 15-26 6-12 1-3z" fill="#F49730"/>
<path transform="translate(817,181)" d="m0 0h2l16 28 13 22 16 28 30 52 10 17 15 26 12 21 14 24 15 26 28 48 16 28 12 20v3l-2-2h-63l-329-1 1-5 9-15 14-24 60-104 11-19 14-24 12-20 6-11 16-28 15-26 7-11 6-11 13-23 9-15z" fill="#126695"/>
<path transform="translate(619,526)" d="m0 0 5 5 6 10 14 24 30 52 14 24 16 28 14 24 11 19 14 24 16 28 14 24 15 26 17 29 11 19v1l-124 1h-268v-3l17-29 14-24 10-18 13-22 15-26 14-24 16-28 11-19 14-24 15-26 14-24 13-23 13-22 14-25z" fill="#1A847C"/>
<path transform="translate(1533)" d="m0 0 2 1-1 75h14v1h-14v75l74-1 1-72 2 1v74l-1 74-2 2h-74v75h73v1l-22 1-51-1v75h11v1h-11v76l3 1h-3v75h74l1 2v19l-1 55h-74v-2h-2v-72h-75l1 38v16l-2 1-1-26v-28h-30l-2 1-9-16-14-24-15-26-8-14-10-17-11-19-14-24-16-28-14-24-8-14-1-5h2v-20h74l1 61 1-61 63-1-63-1v-74l1-1 73-1 3-1 74 1v-75h-73v-2h73v-74h-52v-2h52v-59z" fill="#E9E9EA"/>
<path transform="translate(617,1375)" d="m0 0h43l10 1v60l-2 5-6 4h-9l-12-5v3l4 2 8 3h10l6-3 4-6 1-4 1-59 19-1v22l5 10 7 7 10 5h18l10-5 7-7 4-8 1-4v-19l2-1h10v75h-75l-1-25v25l29 1h123v74l-72 1 72 1v75 2h383v7h-764v-6l1-1h76v-2-75-2-74h112l-35-1-1-10zm46 75v1h28v-1z" fill="#FDFDFD"/>
<path transform="translate(1015,524)" d="m0 0 4 4 9 16 10 17 15 26 17 29 12 21 14 24 16 28 28 48 11 19 5 9 14 24 30 52 14 25 1 2 11 1v47h-47l-27-1-1-39-1 39-4 1-71-1-1-15-1 15h-74l-1-23-1 23-74 1-1-1v-50l235-1-6-10-8-14-10-17-15-26-14-24-15-26-20-35-10-17-15-26-16-28-7-12v-3l-5 5-16 27-15 27-8 13-16 28-14 24-8 14-10 17-16 28-14 24-12 21-6 10 40 1v43l-1 8h-74v-76l-1-24 14-25 14-24 30-52 28-48 16-28 14-24 12-21 21-36 11-19 8-13z" fill="#FDFDFD"/>
<path transform="translate(847,77)" d="m0 0h303l1 2-1 73-1 1h-114l115 1v75h-74l-1-1v-45l-1 40-1 6h-151v-43l1-32 77-1h-77l-1-55-1 54-24 1h-51v-75z" fill="#FEFEFE"/>
<path transform="translate(540,1299)" d="m0 0h75v57l-3 1-10-1-6 3-5 6h-1v-8h-3l-1 18v44h5v-44h26v75h38l-3 2h-37l-75-1 1 74 1 2h-2l1 75 66 1v1l-68 1h-75l-1 6h-77v-7h-73v-1l13-1h60v-75h-73l-1-2h74v-74h-67l-7-1v-1l73-1v-64l1-11v-29l-10-18v-3l5 1 18 34 8 15v2h3l2-5 10-18 14-25 4-4h3l-1 4-16 29-11 19-3 6-1 38-3 1-1-1-1-33-2-9-16-1-1 73h26l49 1-1-30-12-6-7-8-4-9-1-12 2-10 6-9 8-7 9-4h13l11 4 6 4 6 8 3 9v17l-4 9-7 8-12 6h-14v30h74v-29l13-5 7-8h1l1 11h3l1-45v-18h-4l-1 17h-19z" fill="#E9E9EA"/>
<path transform="translate(1019,626)" d="m0 0h2l6 12 14 24 14 25 10 17 12 20 11 20 16 27 14 25 13 22 14 24 9 16 4 7-237 1-41-1 6-11 10-18 10-17 15-26 16-28 6-10 15-26 14-24 11-19 12-21 15-26 7-11z" fill="#2E2F31"/>
<path transform="translate(368,988)" d="m0 0 5 5 12 16 11 16 24 34 11 16 13 18 13 19 8 11 4-4 9-13 12-17 11-16 12-17 13-19 8-11 11-16 13-18 2-4 3 1 9 56 7 45 15 97 6 38h-60l-7-57-3-23-2-18v-13l-5 5-18 27-25 37-13 19-3 1-10-15-27-40-22-33v-2h-2l-2 21-11 90-1 1h-57l-1-2 9-57 11-72 15-97 1-8z" fill="#2E3032"/>
<path transform="translate(1392,992)" d="m0 0 22 1 17 3 19 7 11 6 10 7 15 13 9 10 4 7-9 6-29 15-7 4-6-1-7-9-7-7-9-6-10-4-15-2-17 1-17 5-10 6-10 8-9 13-6 15-2 19 1 18 5 17 6 11 8 10 10 8 10 5 8 3 12 2h18l14-3 12-6 6-5 9-11 7-15-10 1h-45l-5-2v-41l4-1h110l3 1-1 26-4 21-6 17-7 14-10 14-17 17-20 12-20 7-18 3h-30l-25-5-16-6-13-7-14-10-10-9-9-11-9-14-7-17-3-8-3-24v-19l3-21 6-18 9-17 11-14 5-6 9-7 13-9 19-9 21-6 13-2z" fill="#2E3033"/>
<path transform="translate(1152,993)" d="m0 0h74v75l-16 1 16 1 1 12 1-12h48l-1 7-3 15-1 10v19l2 16 1 9 4 10 7 16 11 16 9 10 14 11 13 8 16 7 19 5 12 2v66h-75v-74l1-1h27l-29-1h-61v-76l-1-28-2-12-6-11-10-9-14-7-14-4-17-2h-11l-18 2-23 6-19 8-3 1 10 19 6 12h4l17-7 12-3 18-1 11 2 8 6 4 8 1 17-9-2-13-3-22-2-17 2-16 5-10 6-10 10-5 10-2 10v12l3 11 5 8 5 5 9 7 10 4 15 3 12 1v68h-75v-74l26-1h-26v-76l23-1h-23v-75h77l-1-23z" fill="#FDFDFD"/>
<path transform="translate(1457,1451)" d="m0 0h151l1 8-1 67h-71l71 1v75l-31 1h-24l56 1v7h-228v-84h74 3l63-1h-41l-23-1z" fill="#FEFEFE"/>
<path transform="translate(926,972)" d="m0 0h48l1 22-1 231h-49l-1-21-11 11-10 7-14 5-15 2-16-2-18-7-12-9-5-4-9-12-6-12-4-15-1-7v-20l2-14 5-14 7-12 8-9 15-11 14-6 10-2h21l13 4 10 5 9 7 6 7 2 1v-124z" fill="#2E3033"/>
<path transform="translate(540,863)" d="m0 0h200l27 1 1 1v50l-3 1-70-1v2h73v74l-3 1-72-1v-76h-75v2h74v39l-1 35-17 1h-57l-1-122-1 45-31 1h-44z" fill="#FDFDFD"/>
<path transform="translate(159)" d="m0 0h74v152h-73v2h73v151h-75v-303z" fill="#FEFEFE"/>
<path transform="translate(1618,1072)" d="m0 0 21 2 17 5 16 8 9 7 9 9 7 11 5 12 4 20-1 15-4 16-5 12-11 14-9 8-13 8-16 6-17 3h-21l-17-3-16-6-16-10-7-7-10-13-6-14-3-12v-24l4-16 7-14 11-13 5-5 13-8 11-5 9-3z" fill="#2E3032"/>
<path transform="translate(769,1299)" d="m0 0h75v56l-2 2-1 18 1 40-1 4h5v-43l1-3h36v-16l4-1 2 10 9-8 7-3h10l6 3 5 6 4 9h15l3 1-2 9v8l3 12 7 10 8 5 3 1h17l9-5 4-2v38h-63l-13-1-1 1h-44l-31-1v-24l1-2h-2v26l-5 1h-70z" fill="#FDFDFD"/>
<path transform="translate(846,1299)" d="m0 0h75v27l-1 30h2v-57h75l1 65v-32l1-33h74v74h-14l1-6 5-11-5 3-7 15-5 12-8 18-3 6-2-2-5-13-8-18-9-20-4-1 11 25 12 27 2 5-1 6-9 21-4 9-2 1h-19l-1-40 2-3h2v-3l-5 2-5 5-8 5h-17l-8-5-6-8-3-9v-5l53-1-1-13-6-10-7-6-8-3h-11l-10 4-7 6-5 8h-18l-7-13-5-4-3-1h-10l-10 5-6 7h-1l-1-11h-3l-1 16h-36l1-5 4-6 5-3h13l-6-3h-7l-6 4-5 6h-1v-28z" fill="#FDFDFD"/>
<path transform="translate(1167,1071)" d="m0 0h11l17 2 16 5 12 6 11 10 7 14 1 9 1 29-1 79h-47l-1-3 1-16-5 5-8 7-9 5-16 5h-25l-15-4-10-6-6-5-6-8-4-10-1-5v-12l3-12 5-9 11-11 14-7 17-4 12-1 21 2 16 4 6 2-2-17-4-8-7-5-11-2-18 1-15 4-17 7-3-4-8-16-6-11v-2l12-6 17-6 16-4z" fill="#2E3033"/>
<path transform="translate(690,1073)" d="m0 0h26l14 3 16 7 10 7 8 8 6 8 5 10 4 12 2 17v16h-112l3 9 6 8 7 6 9 4 12 2 12-1 10-5 6-7 2-3 7 1 33 11 2 1-2 4-10 14-10 9-13 8-13 4-11 2h-21l-16-2-18-7-11-7-10-8-10-13-7-14-3-11-2-17 1-11 4-15 4-10 7-11 5-6 14-11 14-7 14-4z" fill="#2E3033"/>
<path transform="translate(312,77)" d="m0 0h74v75l-69 1 69 1v151h-75v-227z" fill="#FEFEFE"/>
<path transform="translate(311,306)" d="m0 0h75v75 2 74h-71v2h71v75h-75z" fill="#FEFEFE"/>
<path transform="translate(158,611)" d="m0 0h75v75l-72 1 72 1v74l-2 1h-69l71 1v75h-75z" fill="#FEFEFE"/>
<path transform="translate(158,306)" d="m0 0h75v75l-63 1 63 1v74h-73v2h73v75h-75z" fill="#FEFEFE"/>
<path transform="translate(1916,1145)" d="m0 0h24l51 1v74l-72 1 72 1v74l-1 1h-70l70 1 1 1v74h-75z" fill="#FEFEFE"/>
<path transform="translate(1916,611)" d="m0 0 75 1v74l-73 1 73 1v74 3 74h-75z" fill="#FEFEFE"/>
<path transform="translate(1916,840)" d="m0 0h74l1 1v74l-68 1 68 1v74l-24 1h-49l72 1 1 1v73l-1 1h-74z" fill="#FEFEFE"/>
<path transform="translate(1916,306)" d="m0 0h72l3 1v74l-70 1 70 1v74l-16 1h-57l72 1 1 1v73l-1 1h-74z" fill="#FEFEFE"/>
<path transform="translate(235,1374)" d="m0 0h47l27 1v74l-6 1 6 1v74h-73v2h73v75l-74 1-1-1v-165z" fill="#FEFEFE"/>
<path transform="translate(1145,841)" d="m0 0h5v8h2v-8h48l14 25 1 2 11 1v47h-47l-27-1-1-39-1 39-4 1-71-1-1-15-1 15h-74l-1-23-1 23-74 1-1-1v-50l235-1-6-10-6-11z" fill="#FDFDFD"/>
<path transform="translate(1304,1299)" d="m0 0h75l1 55 1-55h75v74h-9l-14-41-3-8h-3l3 10 13 37v2h-86l1-6 5-6 4-2 9 1 3 1 1-4-13-1-6 4-6 5v-9h-4l1 63h4v-44h23v75h-75v-29l12-5 9-9v9l-1 3h5v-63l-4 1-1 16h-20z" fill="#FDFDFD"/>
<path transform="translate(1075,1299)" d="m0 0h75v28l1 1v-29h75l1 57-12 6-8 9-3 8-1 9 2 12 5 8 1 3 4 2 6 4 6 3-1 30h-57l-18-1v-71l1-2h17l2 2v41h5v-36l3-7 8-15 20-35 1-2-5 1-10 19-12 21-5 9-4-1-13-23-8-15-5-10-6-2 6 9 8 16 13 23 1 3-18-1h-75z" fill="#FDFDFD"/>
<path transform="translate(403,1113)" d="m0 0h2l7 11 40 60 10 14 2 5 5-5 10-15 25-37 18-27 4-5h2l2 21 4 33 5 42v87h-75v-75h72l-72-1v-15h-2v15h-72l1-12 11-92z" fill="#FDFDFD"/>
<path transform="translate(1533,1299)" d="m0 0h75l1 56-4 1 4 9-1 8-12 1-2-2-3-9-6-5-5-2h-11l-11 4-5 5 5-1 7-4 4-1h10l6 3 4 4 1 3 1 16-11-3h-13l-11 4-6 5-2 5v10l3 6 6 5 5 2h14l9-5 5-7h1v12h3l1-43 1-1h13v74l-1 1h-74l-1-40-1 40h-74l-1-1v-24l3-5 12-36 14-41 4-9 2 4 11 34 3 9 13 38 1 1 10-30 9-26 13-37v-3h-3l-10 28-4 13-2 1z" fill="#FDFDFD"/>
<path transform="translate(693,231)" d="m0 0h75v26l1-26h19l-1 4-14 24-16 28-12 20-6 11-15 26-11 19-14 24-30 52-11 19-4 1-38-1v-34l1-41h78l-2-1v-75h46l-41-1h-5z" fill="#FDFDFD"/>
<path transform="translate(159,916)" d="m0 0h68l6 1v74h-73v2h73v75h-75v-151z" fill="#FEFEFE"/>
<path transform="translate(159,1221)" d="m0 0 74 1v74l-72 1 72 1v75h-75v-151z" fill="#FEFEFE"/>
<path transform="translate(1916,77)" d="m0 0 75 1v74h-74v2h73l1 1v73l-1 1h-74z" fill="#FEFEFE"/>
<path transform="translate(999,917)" d="m0 0h74l1 13-1 62h-18l2 1h16v75l-2 1h-55l-17-1v-75h23l-23-1z" fill="#FDFDFD"/>
<path transform="translate(1916,1374)" d="m0 0h74l1 1v74l-63 1 63 1v18l-1 56-16 1h-58z" fill="#FEFEFE"/>
<path transform="translate(1840,1222)" d="m0 0h74v74l-15 1h-56l71 1v75h-75v-133z" fill="#FEFEFE"/>
<path transform="translate(388,1451)" d="m0 0h74v74h-73v2h73v75l-24 1h-50l-1-1v-87z" fill="#FEFEFE"/>
<path transform="translate(1840,1374)" d="m0 0h74v75l-64 1 64 1v74l-34 1h-40l-1-1v-96z" fill="#FEFEFE"/>
<path transform="translate(1458,77)" d="m0 0h22l52 1v74h-73v2h73v75h-74l-1-1v-95z" fill="#FEFEFE"/>
<path transform="translate(540,459)" d="m0 0h23l52 1v65h2l-1-3v-62h39l-1 5-15 26-17 29-13 23-10 18-13 22-16 28h-30v-75l70-1-70-1z" fill="#FDFDFD"/>
<path transform="translate(387,765)" d="m0 0h75l1 7 1-7h15l-1 5-17 29-16 28-21 36 38 1v52h-74l-1-1v-74l24-1-24-1z" fill="#FDFDFD"/>
<path transform="translate(770,154)" d="m0 0h74l1 68 1-68h75v75l-74 1-10-16-15-26-3-5v-2l-2 1-6 11-14 25-7 12-21-1v-74z" fill="#FDFDFD"/>
<path transform="translate(1152,154)" d="m0 0h72l3 2v22l1-23 1-1h31l43 1v67l-1 7-57 1-14-24-9-16-5-8-3 1-16 28-10 17-2 1h-35v-37z" fill="#FDFDFD"/>
<path transform="translate(576,1070)" d="m0 0h39v65l-1 9-7 1h-17v2l9-1h16v75l-10 1 10 1v74h-75v-71l1-1 58-1-7-44-16-103z" fill="#FDFDFD"/>
<path transform="translate(540,1299)" d="m0 0h75v57l-3 1-10-1-6 3-5 6h-1v-8h-3l-1 18v44h5v-44h24v75h-75v-30l11-4 7-8h1l1 11h3l1-45v-18h-4l-1 17h-19z" fill="#FDFDFD"/>
<path transform="translate(874,765)" d="m0 0h46l1 18 1-18h15l-2 5-15 27-28 48-11 19 40 1v43l-1 8h-74v-76l-1-24 14-25 14-24z" fill="#FDFDFD"/>
<path transform="translate(1228,1299)" d="m0 0h75v20l-1 54h-13v-17h-5v19l1 27 2 9 5 6 10 4 1 1v28h-75v-29l13-1 14-7 7-8 4-11v-10l-2-10-6-8v-2l-4-2-6-4-7-2-13-1z" fill="#FDFDFD"/>
<path transform="translate(999,1146)" d="m0 0h14l1 49v29l48 1-1-8 1-70 3-1h8v75l-4 1 4 1v74h-75z" fill="#FDFDFD"/>
<path transform="translate(1013,1076)" d="m0 0h49v149h-48l-1-5z" fill="#2E3236"/>
<path transform="translate(1305,917)" d="m0 0h74v77l-17 3-17 5-21 10-12 9-6 5h-2v-32h51v-2h-51v-72z" fill="#FDFDFD"/>
<path transform="translate(80)" d="m0 0h2l1 1527-1 51v25l8-1h66v-59l2-1 1 60 9 1v1h-10v7h-78v-7h-76v-1l41-1h35v-75h-74v-1l74-1v-74h-74v-1l37-1h37v-74h-70v-1l13-1h57v-75h-72v-1h72v-75h-74v-1l48-1h26v-74h-74v-1l30-1h44v-75l-15 1h-53l-1-2h69v-75h-74v-1l74-1v-74h-74v-1l40-1h34v-74h-71v-1l20-1h51v-75l-40 1h-22l-9-1v-1h71v-75h-74v-1l53-1h21v-74h-74v-1l34-1h40v-74h-69v-2h69v-75h-73v-1l72-1 1-74h-74v-1l43-1h31v-74h-71v-1l23-1h48v-75l-31 1h-35l-4-2h70v-75h-74v-1l74-1v-74h-74v-1l37-1h37z" fill="#E9E9EA"/>
<path transform="translate(915,307)" d="m0 0h5l2 48v-48h75v75l-62 1-10-17-8-14-14-24-10-17v-3z" fill="#FDFDFD"/>
<path transform="translate(464,612)" d="m0 0h74l1 35 1-35h28l-2 6-17 29-15 26-9 15-61-1-1-1z" fill="#FDFDFD"/>
<path transform="translate(464,994)" d="m0 0h74v19h2v-19h16l-2 5-13 18-13 19-10 14-11 16-10 14-11 16-20 28-3-3v-31l1-20 31-1-31-1z" fill="#FDFDFD"/>
<path transform="translate(1916)" d="m0 0h75v76h-75z" fill="#FEFEFE"/>
<path transform="translate(693,1527)" d="m0 0h75v75l-1 1h-74z" fill="#FEFEFE"/>
<path transform="translate(1229,77)" d="m0 0h74v76h-75v-75z" fill="#FEFEFE"/>
<path transform="translate(1535)" d="m0 0h74v76h-75v-75z" fill="#FEFEFE"/>
<path transform="translate(1382)" d="m0 0h74v76h-75v-75z" fill="#FEFEFE"/>
<path transform="translate(540,1527)" d="m0 0h75v75l-4 1h-70l-1-1z" fill="#FEFEFE"/>
<path transform="translate(1764)" d="m0 0h74v76h-75v-75z" fill="#FEFEFE"/>
<path transform="translate(846,1527)" d="m0 0h75v75l-1 1h-74l-1-2z" fill="#FEFEFE"/>
<path transform="translate(464,1527)" d="m0 0h74l1 1v74l-4 1h-71z" fill="#FEFEFE"/>
<path transform="translate(1075,1527)" d="m0 0h75v75l-7 1h-67l-1-1z" fill="#FEFEFE"/>
<path transform="translate(1687)" d="m0 0h75v53l-1 23h-74z" fill="#FEFEFE"/>
<path transform="translate(999,1527)" d="m0 0h74l1 1v74l-2 1h-73z" fill="#FEFEFE"/>
<path transform="translate(1228,1527)" d="m0 0h75v75l-19 1h-56z" fill="#FEFEFE"/>
<path transform="translate(1305)" d="m0 0h75v37l-1 39h-74z" fill="#FEFEFE"/>
<path transform="translate(1458,1527)" d="m0 0h74v75l-30 1h-44l-1-1v-74z" fill="#FEFEFE"/>
<path transform="translate(1610,1527)" d="m0 0h74l1 1v74l-33 1h-42z" fill="#FEFEFE"/>
<path transform="translate(770,76)" d="m0 0 74 1v76h-75v-31z" fill="#FEFEFE"/>
<path transform="translate(923,1527)" d="m0 0h74v75l-1 1h-73l-1-1v-70z" fill="#FEFEFE"/>
<path transform="translate(1611)" d="m0 0h74v76h-75v-27z" fill="#FEFEFE"/>
<path transform="translate(770,1527)" d="m0 0h74v75l-1 1h-73l-1-1v-26z" fill="#FEFEFE"/>
<path transform="translate(617,1527)" d="m0 0h74l1 6v24l-1 46h-74l-1-2z" fill="#FEFEFE"/>
<path transform="translate(1458)" d="m0 0h75l-1 76h-74z" fill="#FEFEFE"/>
<path transform="translate(312,1526)" d="m0 0 74 1v75l-74 1-1-1v-75z" fill="#FEFEFE"/>
<path transform="translate(1152,1527)" d="m0 0h75v36l-1 39-8 1h-66l-1-2z" fill="#FEFEFE"/>
<path transform="translate(158,1527)" d="m0 0h75v75l-74 1-1-1z" fill="#FEFEFE"/>
<path transform="translate(999,384)" d="m0 0h74l1 34 1-34h21l-1 5-15 26-10 17-14 25-1 1h-56z" fill="#FDFDFD"/>
<path transform="translate(1152,77)" d="m0 0h72l3 1-1 75h-74l-1-2z" fill="#FEFEFE"/>
<path transform="translate(541,382)" d="m0 0 74 1v75h-75v-75z" fill="#FEFEFE"/>
<path transform="translate(1611,153)" d="m0 0 74 1v75h-75v-75z" fill="#FEFEFE"/>
<path transform="translate(158,1374)" d="m0 0h75v75h-75z" fill="#FEFEFE"/>
<path transform="translate(1763,1298)" d="m0 0h75v75h-75z" fill="#FEFEFE"/>
<path transform="translate(158,1069)" d="m0 0h75v75h-75z" fill="#FEFEFE"/>
<path transform="translate(1763,993)" d="m0 0h75v75h-75z" fill="#FEFEFE"/>
<path transform="translate(1610,917)" d="m0 0h75v75h-75z" fill="#FEFEFE"/>
<path transform="translate(158,840)" d="m0 0h75v75h-75z" fill="#FEFEFE"/>
<path transform="translate(1763,764)" d="m0 0h75v75h-75z" fill="#FEFEFE"/>
<path transform="translate(1764,687)" d="m0 0 74 1v74l-1 1h-74v-75z" fill="#FEFEFE"/>
<path transform="translate(311,611)" d="m0 0h75v75h-75z" fill="#FEFEFE"/>
<path transform="translate(1763,535)" d="m0 0h75v75h-75z" fill="#FEFEFE"/>
<path transform="translate(1610,535)" d="m0 0h75v75h-75z" fill="#FEFEFE"/>
<path transform="translate(387,535)" d="m0 0h75v75h-75z" fill="#FEFEFE"/>
<path transform="translate(311,535)" d="m0 0h75v75h-75z" fill="#FEFEFE"/>
<path transform="translate(158,535)" d="m0 0h75v75h-75z" fill="#FEFEFE"/>
<path transform="translate(1763,459)" d="m0 0h75v75h-75z" fill="#FEFEFE"/>
<path transform="translate(1610,459)" d="m0 0h75v75h-75z" fill="#FEFEFE"/>
<path transform="translate(1763,230)" d="m0 0h75v75h-75z" fill="#FEFEFE"/>
<path transform="translate(1610,230)" d="m0 0h75v75h-75z" fill="#FEFEFE"/>
<path transform="translate(1534,230)" d="m0 0h75v75h-75z" fill="#FEFEFE"/>
<path transform="translate(1763,154)" d="m0 0h75v75h-75z" fill="#FEFEFE"/>
<path transform="translate(1305,154)" d="m0 0h75l-1 74-1 1h-74v-65z" fill="#FEFEFE"/>
<path transform="translate(693,154)" d="m0 0h75v75h-75z" fill="#FEFEFE"/>
<path transform="translate(388,917)" d="m0 0h74v75h-75v-74z" fill="#FEFEFE"/>
<path transform="translate(1458,306)" d="m0 0h74v75h-75v-74z" fill="#FEFEFE"/>
<path transform="translate(1382,230)" d="m0 0h74v75h-75v-74z" fill="#FEFEFE"/>
<path transform="translate(1534,154)" d="m0 0h75v74l-1 1h-74z" fill="#FEFEFE"/>
<path transform="translate(158,1450)" d="m0 0h73l2 1v74h-75z" fill="#FEFEFE"/>
<path transform="translate(1534,459)" d="m0 0h75v74l-1 1h-74z" fill="#FEFEFE"/>
<path transform="translate(1381,77)" d="m0 0h73l2 1v74h-75z" fill="#FEFEFE"/>
<path transform="translate(1458,917)" d="m0 0h74v75h-75v-72z" fill="#FEFEFE"/>
<path transform="translate(1075,917)" d="m0 0h75v72l-1 3h-74z" fill="#FEFEFE"/>
<path transform="translate(1458,383)" d="m0 0h74v74l-1 1h-74v-72z" fill="#FEFEFE"/>
<path transform="translate(1457,230)" d="m0 0h75v75h-74l-1-1z" fill="#FEFEFE"/>
<path transform="translate(1687,1527)" d="m0 0h74v75l-74 1-1-1v-56z" fill="#FEFEFE"/>
<path transform="translate(158,1145)" d="m0 0h69l6 1v74h-75z" fill="#FEFEFE"/>
<path transform="translate(1840,1527)" d="m0 0h74v75l-74 1-1-1v-67z" fill="#FEFEFE"/>
<path transform="translate(1381,1527)" d="m0 0h74l1 1v74l-47 1h-28z" fill="#FEFEFE"/>
<path transform="translate(1916,1069)" d="m0 0h74l1 1v74h-75z" fill="#FEFEFE"/>
<path transform="translate(1611,688)" d="m0 0h74v75h-75v-74z" fill="#FEFEFE"/>
<path transform="translate(1916,230)" d="m0 0h74l1 1v74h-75z" fill="#FEFEFE"/>
<path transform="translate(1916,535)" d="m0 0h74l1 1v74h-75z" fill="#FEFEFE"/>
<path transform="translate(541,917)" d="m0 0h74v75h-52l-1-3-2-1-1 4-3 1-16-1v-74z" fill="#FDFDFD"/>
<path transform="translate(1381,154)" d="m0 0h75v74l-4 1h-70l-1-1z" fill="#FEFEFE"/>
<path transform="translate(1305,1527)" d="m0 0h74v75l-15 1h-59l-1-1v-20z" fill="#FEFEFE"/>
<path transform="translate(1840,1069)" d="m0 0h74v75h-75v-63z" fill="#FEFEFE"/>
<path transform="translate(1444,306)" d="m0 0 12 1v55l-1 19-4 1h-70l-1-14 1-61z" fill="#FEFEFE"/>
<path transform="translate(1690,764)" d="m0 0h71l1 1-1 74h-75v-59l1-15z" fill="#FEFEFE"/>
<path transform="translate(1687,688)" d="m0 0h75l-1 75h-74l-1-1v-53z" fill="#FEFEFE"/>
<path transform="translate(1534,306)" d="m0 0h74l1 1v74h-75z" fill="#FEFEFE"/>
<path transform="translate(1763,1222)" d="m0 0h75v74l-14 1h-61z" fill="#FEFEFE"/>
<path transform="translate(968,230)" d="m0 0h30v27l-1 48-75 1v-75z" fill="#FEFEFE"/>
<path transform="translate(1228,917)" d="m0 0h75v75h-75z" fill="#FEFEFE"/>
<path transform="translate(1763,1527)" d="m0 0h75v75l-75 1z" fill="#FEFEFE"/>
<path transform="translate(1687,993)" d="m0 0h74v75h-75v-48z" fill="#FEFEFE"/>
<path transform="translate(1687,917)" d="m0 0h75l-1 74-11 1h-63l-1-1v-53z" fill="#FEFEFE"/>
<path transform="translate(1674,611)" d="m0 0h8l3 1v74l-23 1h-52v-75z" fill="#FEFEFE"/>
<path transform="translate(1763,840)" d="m0 0h74l1 1v74h-75z" fill="#FEFEFE"/>
<path transform="translate(311,687)" d="m0 0 75 1v75h-74l-1-1z" fill="#FEFEFE"/>
<path transform="translate(1610,306)" d="m0 0h74l1 1v74h-75z" fill="#FEFEFE"/>
<path transform="translate(82,1527)" d="m0 0h75l-1 75-74 1-1-5v-20z" fill="#FEFEFE"/>
<path transform="translate(770,993)" d="m0 0h72l2 1v74l-3 1-72-1v-44z" fill="#FEFEFE"/>
<path transform="translate(1304,231)" d="m0 0h75v74l-28 1h-46l-1-6z" fill="#FEFEFE"/>
<path transform="translate(1687,1222)" d="m0 0h74v75h-75v-74z" fill="#FEFEFE"/>
<path transform="translate(1686,1451)" d="m0 0h75v74l-18 1h-56l-1-1z" fill="#FEFEFE"/>
<path transform="translate(1763,306)" d="m0 0h72l3 1v74h-75z" fill="#FEFEFE"/>
<path transform="translate(1534,1527)" d="m0 0h74v75l-31 1h-43z" fill="#FEFEFE"/>
<path transform="translate(1765,1374)" d="m0 0h73v75h-75v-74z" fill="#FEFEFE"/>
<path transform="translate(617,993)" d="m0 0h74l1 2v26l-1 47-24 1-50-1z" fill="#FEFEFE"/>
<path transform="translate(1840,1145)" d="m0 0h71l3 1v74h-75v-66z" fill="#FEFEFE"/>
<path transform="translate(388,688)" d="m0 0h71l3 1v74h-75v-41z" fill="#FEFEFE"/>
<path transform="translate(1305,77)" d="m0 0h74l1 1v50l-1 24-74 1-1-3z" fill="#FEFEFE"/>
<path transform="translate(1763,1146)" d="m0 0h75v74l-37 1h-38z" fill="#FEFEFE"/>
<path transform="translate(1764,382)" d="m0 0 74 1v74l-22 1h-53v-75z" fill="#FEFEFE"/>
<path transform="translate(1457,1222)" d="m0 0h75v75h-75z" fill="#FEFEFE"/>
<path transform="translate(1612,993)" d="m0 0h72l1 1v74l-75 1v-75z" fill="#FEFEFE"/>
<path transform="translate(617,917)" d="m0 0h75v39l-1 35-17 1h-57z" fill="#FEFEFE"/>
<path transform="translate(1763,1451)" d="m0 0h75v74l-23 1h-20l-32-1z" fill="#FEFEFE"/>
<path transform="translate(1512,459)" d="m0 0h20v75h-75v-74z" fill="#FEFEFE"/>
<path transform="translate(464,459)" d="m0 0h74l1 1v19l-1 55h-74z" fill="#FEFEFE"/>
<path transform="translate(464,917)" d="m0 0h74l1 1v74h-76z" fill="#FEFEFE"/>
<path transform="translate(1601,688)" d="m0 0 8 1v74l-54 1-4-4-13-23-12-21-13-22-1-5h20v33h2v-33z" fill="#FDFDFD"/>
<path transform="translate(1383,383)" d="m0 0h72l1 1v20l-1 54h-74v-74z" fill="#FEFEFE"/>
<path transform="translate(312,916)" d="m0 0 73 1 1 1v74l-14 1-4-4-1 3h-56v-75z" fill="#FDFDFD"/>
<path transform="translate(1822,1069)" d="m0 0h15l1 1v74h-75v-74z" fill="#FEFEFE"/>
<path transform="translate(1763,611)" d="m0 0 75 1v74h-75z" fill="#FEFEFE"/>
<path transform="translate(388,611)" d="m0 0h30l44 1v75h-46l-28-1-1-74z" fill="#FEFEFE"/>
<path transform="translate(1534,382)" d="m0 0 75 1v74l-75 1z" fill="#FEFEFE"/>
<path transform="translate(1085,993)" d="m0 0 65 1v72l-1 3h-73l-1-1v-74z" fill="#FEFEFE"/>
<path transform="translate(1534,77)" d="m0 0 75 1v74h-75z" fill="#FEFEFE"/>
<path transform="translate(235,1298)" d="m0 0h74v75h-74l-1-1z" fill="#FEFEFE"/>
<path transform="translate(1610,765)" d="m0 0h75v48l-1 26-37 1h-37z" fill="#FEFEFE"/>
<path transform="translate(1534,917)" d="m0 0h74l1 4-1 71h-74l-1-12z" fill="#FEFEFE"/>
<path transform="translate(999,307)" d="m0 0h74v75h-74l-1-8v-26z" fill="#FEFEFE"/>
<path transform="translate(1916,1527)" d="m0 0h74l1 1-1 74h-74z" fill="#FEFEFE"/>
<path transform="translate(311,1450)" d="m0 0 75 1v74h-75z" fill="#FEFEFE"/>
<path transform="translate(1753,840)" d="m0 0 9 1-1 74h-75v-71l1-3z" fill="#FEFEFE"/>
<path transform="translate(1611,77)" d="m0 0 74 1v74h-75v-74z" fill="#FEFEFE"/>
<path transform="translate(1752,1298)" d="m0 0h7l2 1v74h-75v-74z" fill="#FEFEFE"/>
<path transform="translate(1764,916)" d="m0 0 74 1v74l-75 1v-75z" fill="#FEFEFE"/>
<path transform="translate(1687,535)" d="m0 0h74l1 1-1 74h-74z" fill="#FEFEFE"/>
<path transform="translate(1687,459)" d="m0 0h74l1 1-1 74h-74z" fill="#FEFEFE"/>
<path transform="translate(1611,382)" d="m0 0 74 1v74l-74 1-1-1v-74z" fill="#FEFEFE"/>
<path transform="translate(1687,230)" d="m0 0h74l1 1-1 74h-74z" fill="#FEFEFE"/>
<path transform="translate(1764,77)" d="m0 0 74 1v74h-75v-74z" fill="#FEFEFE"/>
<path transform="translate(1687,154)" d="m0 0h74l1 1-1 74h-74z" fill="#FEFEFE"/>
<path transform="translate(1618,1450)" d="m0 0 44 1h23v19l-1 56h-74v-75z" fill="#FEFEFE"/>
<path transform="translate(617,306)" d="m0 0 74 1v75h-74l-1-2z" fill="#FEFEFE"/>
<path transform="translate(1686,1375)" d="m0 0h75v74l-75 1z" fill="#FEFEFE"/>
<path transform="translate(311,764)" d="m0 0h58l17 1v18l-1 56h-74z" fill="#FEFEFE"/>
<path transform="translate(540,1451)" d="m0 0h75v74l-74 1-1-1z" fill="#FEFEFE"/>
<path transform="translate(1152,917)" d="m0 0h74v75h-74l-1-2z" fill="#FEFEFE"/>
<path transform="translate(1228,1451)" d="m0 0h75v74h-75z" fill="#FEFEFE"/>
<path transform="translate(1075,1451)" d="m0 0h75v74h-75z" fill="#FEFEFE"/>
<path transform="translate(769,1451)" d="m0 0h75v74l-74 1-1-3z" fill="#FEFEFE"/>
<path transform="translate(235,993)" d="m0 0h74v75h-74z" fill="#FEFEFE"/>
<path transform="translate(694,917)" d="m0 0h74v74l-3 1-72-1v-73z" fill="#FEFEFE"/>
<path transform="translate(846,1451)" d="m0 0h75v73l-1 1h-74z" fill="#FEFEFE"/>
<path transform="translate(999,230)" d="m0 0h71l3 1v74h-74z" fill="#FEFEFE"/>
<path transform="translate(1075,1375)" d="m0 0h67l8 1v73l-1 1h-74l-1-3v-15l8-18 3-7h-5l-1 6-3 6h-1z" fill="#FDFDFD"/>
<path transform="translate(616,230)" d="m0 0h62l13 1v75l-74-1z" fill="#FEFEFE"/>
<path transform="translate(1304,1451)" d="m0 0h75v74h-75z" fill="#FEFEFE"/>
<path transform="translate(770,917)" d="m0 0h74v75h-74z" fill="#FEFEFE"/>
<path transform="translate(922,1451)" d="m0 0h75v74h-75z" fill="#FEFEFE"/>
<path transform="translate(464,535)" d="m0 0h21l53 1v74l-5 1h-35l-34-1z" fill="#FEFEFE"/>
<path transform="translate(1534,1451)" d="m0 0h74l1 8-1 67h-74l-1-3v-29z" fill="#FEFEFE"/>
<path transform="translate(693,1451)" d="m0 0h75v74l-74 1-1-1z" fill="#FEFEFE"/>
<path transform="translate(1592,535)" d="m0 0h16l1 1v19l-1 55h-74l-1-2v-18l1-54z" fill="#FEFEFE"/>
<path transform="translate(1534,994)" d="m0 0h74l1 4-1 71h-31l-43-1-1-2v-24z" fill="#FEFEFE"/>
<path transform="translate(1687,306)" d="m0 0h72l3 1-1 74h-74z" fill="#FEFEFE"/>
<path transform="translate(235,1222)" d="m0 0h60l14 1v74h-74l-1-1z" fill="#FEFEFE"/>
<path transform="translate(1193,1206)" d="m0 0h2v18l2 1 29 1v71h-75v-68l6-2 16-5 9-5 7-6z" fill="#FDFDFD"/>
<path transform="translate(235,1146)" d="m0 0h74v75h-42l-32-1z" fill="#FEFEFE"/>
<path transform="translate(1687,611)" d="m0 0 75 1-1 74h-75z" fill="#FEFEFE"/>
<path transform="translate(1687,382)" d="m0 0 75 1-1 74-22 1h-52z" fill="#FEFEFE"/>
<path transform="translate(454,1222)" d="m0 0h6l2 1v74h-75v-31l1-40 2-3z" fill="#FDFDFD"/>
<path transform="translate(1381,1451)" d="m0 0h75v22l-1 52h-74z" fill="#FEFEFE"/>
<path transform="translate(1687,77)" d="m0 0 75 1-1 74h-74z" fill="#FEFEFE"/>
<path transform="translate(311,1375)" d="m0 0h75v74h-75z" fill="#FEFEFE"/>
<path transform="translate(1295,1222)" d="m0 0h8v55l-1 20h-74v-71l14-1 1-2z" fill="#FEFEFE"/>
<path transform="translate(311,840)" d="m0 0h18l56 1v74h-74z" fill="#FEFEFE"/>
<path transform="translate(464,1451)" d="m0 0h74v74l-74 1z" fill="#FEFEFE"/>
<path transform="translate(235,1069)" d="m0 0h20l54 1v56l-1 18h-73z" fill="#FEFEFE"/>
<path transform="translate(1152,1451)" d="m0 0h74v74h-74z" fill="#FEFEFE"/>
<path transform="translate(999,1451)" d="m0 0h74v74h-74z" fill="#FEFEFE"/>
<path transform="translate(1076,230)" d="m0 0 74 1v60l-5 12-3 2h-67v-74z" fill="#FDFDFD"/>
<path transform="translate(1381,1375)" d="m0 0h63l13 38-1 26-1 11h-74z" fill="#FDFDFD"/>
<path transform="translate(311,1223)" d="m0 0h18l8 2 50 1-1 71h-75z" fill="#FDFDFD"/>
<path transform="translate(617,1299)" d="m0 0h74v75h-16v-50h-5l1 3-1 32-1 14-2 1-51-1v-30z" fill="#FDFDFD"/>
<path transform="translate(783,1146)" d="m0 0h10l9 1 1 11 5 22 5 12 8 11 5 5 7 6 9 6v1h-73v-17l-2-1 8-12 3-4-11-3-27-9h-4l-6 8-9 6-10 2-13-1-11-4-6-4-7-7-5-10v-4l111-1 1-13z" fill="#FCFCFC"/>
<path transform="translate(1457,1299)" d="m0 0h75l1 71-12 36-2 3-14-41-13-40-1-6h-2l-3 9-13 40-1 2h-15z" fill="#FDFDFD"/>
<path transform="translate(1228,993)" d="m0 0h18l57 1v35l-9 10-9 14-8 16-49-1z" fill="#FDFDFD"/>
<path transform="translate(1305,307)" d="m0 0h74v75h-46l-14-24-12-21-3-5-1-5h2z" fill="#FDFDFD"/>
<path transform="translate(1015,524)" d="m0 0 4 4 9 16 10 17 15 26 15 25-1 2-68-1v47l-2 2-1-4 1-45h-34l7-14 10-17 14-24 11-19 8-13z" fill="#FDFDFD"/>
<path transform="translate(693,1299)" d="m0 0h75v74l-2 1h-12l-6-9-8-6-9-3h-11l-12 4-8 7-4 7h-3l-1-3z" fill="#FDFDFD"/>
<path transform="translate(375,994)" d="m0 0h87v74l-36 1-10-14-28-40-10-14-3-4z" fill="#FDFDFD"/>
<path transform="translate(999,613)" d="m0 0h68l3 3 12 21 28 48v2h-35l-1-57v57h-20l-15-27-14-24-4-7v-3l-5 5-16 27-2 1z" fill="#FDFDFD"/>
<path transform="translate(830,841)" d="m0 0h14v75h-74l-1-8v-43l1-1 48-1 10-19z" fill="#FDFDFD"/>
<path transform="translate(1993,1527)" d="m0 0h55v75l-7 1h-49v-75z" fill="#FEFEFE"/>
<path transform="translate(1993,611)" d="m0 0 55 1v75h-24l-30-1-1 2-1-2v-74z" fill="#FEFEFE"/>
<path transform="translate(1993,77)" d="m0 0 55 1v75h-29l-25-1-1 2-1-2v-67z" fill="#FEFEFE"/>
<path transform="translate(1993,1145)" d="m0 0 55 1v75h-55l-1-1v-74z" fill="#FEFEFE"/>
<path transform="translate(1993,306)" d="m0 0 55 1v75h-55l-1-1v-74z" fill="#FEFEFE"/>
<path transform="translate(1993,840)" d="m0 0h15l40 1v74l-5 1h-50l-1-1v-74z" fill="#FEFEFE"/>
<path transform="translate(1993,1374)" d="m0 0h17l38 1v74l-55 1-1-1v-74z" fill="#FEFEFE"/>
<path transform="translate(884,1113)" d="m0 0h14l9 4 9 7 6 10 2 6v5l1 1v11l-3 10-6 10-11 8-9 3h-10l-11-3-10-7-6-9-3-9-1-13 2-12 6-10 8-7 8-4z" fill="#FCFCFC"/>
<path transform="translate(1380,460)" d="m0 0h75l1 12-1 62-34 1-12-22-9-15-15-26-5-9z" fill="#FDFDFD"/>
<path transform="translate(962,613)" d="m0 0h35v50l-12 22-3 4-63 1 2-6 14-24 15-26z" fill="#FDFDFD"/>
<path transform="translate(1618,1113)" d="m0 0 10 1 8 3 10 8 5 8 2 6 1 7v10l-3 12-6 9-10 7-12 3h-9l-10-3-8-6-6-7-4-10-1-6v-12l3-10 8-11 10-7z" fill="#FDFDFD"/>
<path transform="translate(511,863)" d="m0 0h28v50l-1 3h-74v-52z" fill="#FDFDFD"/>
<path transform="translate(849,231)" d="m0 0h72v74l-1 1h-30l-14-25-14-24-13-22z" fill="#FDFDFD"/>
<path transform="translate(617,1375)" d="m0 0h43l10 1v60l-2 5-6 4h-9l-12-5v3l4 2 8 3 7 1v1h-43l-1-10z" fill="#FDFDFD"/>
<path transform="translate(311,993)" d="m0 0h54l2 1-3 22-8 52-4 1-42-1v-29z" fill="#FDFDFD"/>
<path transform="translate(1653,1375)" d="m0 0h32v40l-1 35h-60l-3-1 1-6 12-26 16-36z" fill="#FDFDFD"/>
<path transform="translate(309)" d="m0 0 3 1v76l-1 228h75v-75h-73v-1h73v-75h-69l-3-2h72v-75h-73v-1h73v-63l1-10h1v530l72 1v1h-73v75l-1 1h-75v75l3 1h-3l1 75 57 1v1h-58v74h-1l-1-27v-18l1-29h-74v-1l41-1h33v-74h-70l-3-2h73l-1-74-73-1v-1h74l-1-74-73-1v-1l73-1 1-74h-73l1-2h72l-1-74-73-1v-1h74l-1-74-73-1v-1l73-1 1-74h-74v-1l73-1 1-74h-72l-1-2h73l-1-74-73-1v-1h74zm2 306v228h75v-75h-71v-2h71v-74-2-75zm0 229v75h75v-75zm-2 303m-73 1h73v1h-73z" fill="#E9E9EA"/>
<path transform="translate(564,994)" d="m0 0h51v74l-40 1-9-56-2-12z" fill="#FDFDFD"/>
<path transform="translate(1075,307)" d="m0 0h64l1 2-3 7-10 18-28 48h-24z" fill="#FDFDFD"/>
<path transform="translate(1517,612)" d="m0 0h15l1 75h-24l-14-24-15-26-12-21v-3z" fill="#FDFDFD"/>
<path transform="translate(937,384)" d="m0 0h60v74h-19l-14-25-16-27-11-19z" fill="#FDFDFD"/>
<path transform="translate(311,1070)" d="m0 0h43v11l-10 64h-12l-22-1v-50z" fill="#FDFDFD"/>
<path transform="translate(464,689)" d="m0 0h59l-1 5-14 24-16 28-11 18-18-1z" fill="#FDFDFD"/>
<path transform="translate(1569,1355)" d="m0 0h11l8 4 5 6 3 8h12v-6h2l1 7v75l7 1v1h-8v75l9-1 63 1v1h-72v76l27-1 15 1v1h-42v7h-1v-7h-57l1-2h55v-75h-72l1-2 71 1v-75l-6 1h-41l-26-1v-1l73-1v-71l1-3-13 1-1 43-4 1-1-1v-10l-6 7-8 4h-14l-8-4-6-7-1-3v-10l3-6 6-5 11-4h13l11 4-1-2-1-14-3-5-4-3-3-1h-10l-10 4-3 2-4-1 5-5 8-4z" fill="#E9E9EA"/>
<path transform="translate(1228,1070)" d="m0 0h48l-1 7-3 15-1 10v19l3 24-1 1-29 1-1 66h-1v-68l-1-28-2-12-6-11-6-6z" fill="#FCFCFC"/>
<path transform="translate(1250,231)" d="m0 0h53v74l-1 1h-13l-10-17-16-28-14-24-1-5z" fill="#FDFDFD"/>
<path transform="translate(691,1450)" d="m0 0 2 1 1 74h74v-74h1l1 74 1 2-1 49v26l71 1v1l-73 1h-77l-75-1v7h-153v-6l1-1h76l67-1 4-1h3l1-75h-73l1-2h72v-73l2-1 1 74h73zm-74 77-1 75 1 1h74l1-46v-24l-1-6zm76 0v76h74l1-1v-75z" fill="#E9E9EA"/>
<path transform="translate(463,1359)" d="m0 0h11l11 4 6 5 6 12v15l-4 10-7 7-9 4-10 1-9-2-9-7-4-5-3-9v-13l2-6 6-9 10-6z" fill="#FDFDFD"/>
<path transform="translate(720,1359)" d="m0 0h10l9 3 9 8 4 9v17l-3 8-7 8-8 4h-18l-10-6-6-9-3-10 1-13 4-8 8-7z" fill="#FDFDFD"/>
<path transform="translate(1229,1359)" d="m0 0h11l10 4 8 7 4 10v15l-4 10-4 5-12 6h-16l-10-6-6-8-3-8v-13l4-10 8-8z" fill="#FDFDFD"/>
<path transform="translate(1036,993)" d="m0 0 10 1 10 5 7 8 4 10-1 9-2 6-7 8-8 5-9 2-10-1-9-4-7-6-5-10v-11l3-8 6-7 8-5z" fill="#2E3134"/>
<path transform="translate(1057,1375)" d="m0 0h16v52l-5 12-1 2 5-1 1 2v8h-41l-7-1 1-6 10-21 11-25 9-21z" fill="#FDFDFD"/>
<path transform="translate(1151,34)" d="m0 0h1v42h72v1h-72v75l71 1v1h-71v38l-1 37 36-1-2 6-15 25-13 23-10 17-1-2 3-6v-35l1-25h-73v-2l72-1 1-74h-115l-4-2h118l1-74h-229l-73-1v-1l74-1 228 1z" fill="#E9E9EA"/>
<path transform="translate(981,460)" d="m0 0h16l1 27 1-27h53l-3 9-10 17-15 26-6 10-4-2-9-16-14-24-10-17z" fill="#FDFDFD"/>
<path transform="translate(1533,1451)" d="m0 0h1v75l2 1h-2v76h18l57 1v7h-228v-7l17-1 1-1h23l33-1v-38l2-1 1 40h74v-75l-3-1 2-1 1-73z" fill="#E9E9EA"/>
<path transform="translate(999,1070)" d="m0 0h74v75h-11v-69h-49v68l-1 1h-13z" fill="#FDFDFD"/>
<path transform="translate(1101,765)" d="m0 0h49v74l-1 1h-6l-10-17-15-26-14-24-3-5z" fill="#FDFDFD"/>
<path transform="translate(311,1146)" d="m0 0h32l-1 13-9 59-1 5-22-2v-68z" fill="#FDFDFD"/>
<path transform="translate(1074,160)" d="m0 0h1l1 28v40 3l-1 74 68-1-2 6-2 1v-3l-64-1v75h23l-2 3-21-1v35l-2 1v-36h-74v74h55l-2 5-1-2-52-1v28l-2-1v-27l-17 1-1-3h18v-74l-61 1 1-3h60v-75h-75l2-2h73v-48l1-27-3-1 6-1h29l43 1zm-75 70v75h74v-74l-3-1zm0 77-1 52v16l1 7h74v-75z" fill="#E9E9EA"/>
<path transform="translate(539,934)" d="m0 0h1v58h16v3l-16-1v19h-2v-19h-74v74h31l6 1v1h-37v20l-1 30-5-5-16-23-12-17-3-4v-2l6-1h29v-74h-75v14h-1v-14l-12 1v-3l11-1v-48l2-1v50l76-1h75v-56z" fill="#E9E9EA"/>
<path transform="translate(844,818)" d="m0 0 2 4v18h46v1h-46v75l3 1h-3v75h76v1h-76v75h11l2 2h-14v5l-2-4-74-1v31h-2v-31h-50l-10-1v-1h61l-1-74v-3l1-74h-73v-2h72v-51l3 1v43l1 7h21l52 1v-75l-10 1-3-2 10-18zm-74 99v75h74v-75zm0 76-1 31v44l73 1 2-1v-74l-2-1z" fill="#E9E9EA"/>
<path transform="translate(1336,384)" d="m0 0h43v74l-3-1-14-25-9-15-16-28z" fill="#FDFDFD"/>
<path transform="translate(1489,1322)" d="m0 0h2l10 31 18 54 4-9 24-72 2-3 4 1-1 5-14 41-15 43-2 8-4-4-13-40v-2h-11v-1h10l-13-39-14 40-14 41-2 5h-2l-6-20-8-23v-3l-4-1h3l-16-46-1-4 4-1 4 9 14 41 6 18 5 14v2h2l1-5 8-24 4-13 12-36z" fill="#2C3B44"/>
<path transform="translate(157,1521)" d="m0 0 1 4 76-1 1 1v77l11 1 63 1v7h-151v-7l10-1 1-1h64v-75h-75v15h-1v-15h-74l1-2h72z" fill="#E9E9EA"/>
<path transform="translate(976,994)" d="m0 0h21v74l-17 1-5 1v-75z" fill="#FEFEFE"/>
<path transform="translate(1610,1146)" d="m0 0h44v10l-3 12-6 9-10 7-12 3h-9l-3-1-1-5z" fill="#FDFDFD"/>
<path transform="translate(1166,1161)" d="m0 0 17 2 11 4v7l-3 9-7 7-9 4-10 2h-8l-8-2-6-4-3-6v-7l3-7 6-5 7-3z" fill="#FCFCFC"/>
<path transform="translate(376,1323)" d="m0 0 5 1 18 34 8 15v2h3l2-5 10-18 14-25 4-4h3l-1 4-16 29-11 19-3 6-1 38-3 1-1-1-1-33-2-9-16-1-1 73h26l49 1v1h-74v64l-1 9h-1v-73h-67l-7-1v-1l73-1v-64l1-11v-29l-10-18z" fill="#E9E9EA"/>
<path transform="translate(693,1375)" d="m0 0 1 4v20h-2v26l-1 25h-28v-2l6-3 4-6 1-4 1-59z" fill="#FCFCFC"/>
<path transform="translate(782,1375)" d="m0 0h28l4 1v26l-5 8-6 5-10 2-7-2-5-5-2-5v-29z" fill="#FDFDFD"/>
<path transform="translate(1380,165)" d="m0 0h1l1 63 59 1v1l-59 1-1 74h69v1l-6 1h-63v61l-1 6h-1v-67h-74v20l-2 3-13-22v-2l12-1 1-74-55 1-1 2-1-4 5-1h51v-6l2-1v7l74-1 1-62zm-76 66v69l1 6h46l28-1v-74z" fill="#E9E9EA"/>
<path transform="translate(1292,1375)" d="m0 0h10l1 3 1-3 20 1v24l-3 7-7 7-7 3-10-1-6-5-2-6-1-28z" fill="#FDFDFD"/>
<path transform="translate(527,1375)" d="m0 0h11v37h2v-37h19v24l-3 7-7 8-7 3-10-1-6-5-2-5v-30z" fill="#FDFDFD"/>
<path transform="translate(464,1375)" d="m0 0h31l2 5v15l-4 10-7 7-9 4-10 1-4-2z" fill="#FDFDFD"/>
<path transform="translate(697,1109)" d="m0 0h13l10 3 6 4 6 7 2 5-1 4h-61l-3-2 7-11 8-6 8-3z" fill="#FBFBFB"/>
<path transform="translate(464,1604)" d="m0 0h151v7h-152v-6z" fill="#FDFDFD"/>
<path transform="translate(1151,231)" d="m0 0h33l-2 8-13 22-14 24-3 1-1-1z" fill="#FCFCFC"/>
<path transform="translate(1571,1384)" d="m0 0 11 1 8 4v14l-4 6-7 6-7 2-11-1-7-5-3-9 2-9 7-6 5-2z" fill="#FDFDFD"/>
<path transform="translate(970,1359)" d="m0 0h11l8 4 7 7 3 10v5h-49l1-9 5-9 9-6z" fill="#FCFCFD"/>
<path transform="translate(1424,536)" d="m0 0h31l1 4v25l1 30-4-5-15-26-10-17-4-7z" fill="#FCFCFC"/>
<path transform="translate(996,558)" d="m0 0h1v53h-32l1-5 14-24 12-21z" fill="#FDFDFD"/>
<path transform="translate(1610,1371)" d="m0 0h2l9 21 9 20v6l-12 26-3 5-4 1-1-1z" fill="#FDFDFD"/>
<path transform="translate(970,1355)" d="m0 0h11l8 3 9 8 5 9 1 13-1 1h-53l3 12 6 9 8 5h17l8-5 4-2 2-4h4v3l-8 7-8 5-2 1h-17l-10-5-6-7-4-8-2-9v-8l4-12 6-8 9-6zm0 4-12 6-4 5-4 9v6h49l-1-8-2-7-8-8-7-3z" fill="#2C3D47"/>
<path transform="translate(428,1070)" d="m0 0h34v43l-1 3-3-1-16-23-12-17z" fill="#FDFDFD"/>
<path transform="translate(1569,1355)" d="m0 0h11l8 4 5 6 2 7v47l-4 1-1-1v-10l-6 7-8 4h-14l-8-4-6-7-1-3v-10l3-6 6-5 11-4h13l11 4-1-2-1-14-3-5-4-3-3-1h-10l-10 4-3 2-4-1 5-5 8-4zm2 29-9 2-6 4-4 5-1 7 3 9 7 5 11 1 9-3 7-7 2-4v-14l-8-4z" fill="#2C3D46"/>
<path transform="translate(844,818)" d="m0 0 2 4v18h46v1h-46v75l3 1h-3v75h76v1h-76v75h11l2 2h-14v5l-2-4v-3l1-74-3-1 3-1v-75l-2-1h2v-75l-10 1-3-2 10-18z" fill="#E8E8E9"/>
<path transform="translate(720,1355)" d="m0 0h11l11 4 9 8 5 10 1 4v14l-3 9-9 10-8 5-3 1h-18l-10-5-8-8-5-10v-18l6-12 9-8zm0 4-10 4-8 7-4 8-1 13 3 10 6 9 10 6h18l8-4 7-8 3-8v-17l-5-10-8-7-9-3z" fill="#2C3B44"/>
<path transform="translate(769,8)" d="m0 0h1v114l-1 31h73v1l-72 1-1 73h-1v-74h-75v32h-1v-32h-54l-1-2h55v-73h1v73h54l21 1v-76h-72v-1h72v-39z" fill="#E9E9EA"/>
<path transform="translate(1229,1355)" d="m0 0h12l9 3 8 6 7 10 2 10v10l-4 11-8 9-12 6h-17l-10-5-5-4-6-9-2-5-1-10 2-11 4-8 7-7 8-4zm0 4-10 4-8 8-4 10v13l4 10 6 7 9 5h16l12-6 6-9 2-6v-15l-4-10-8-7-10-4z" fill="#2C3B43"/>
<path transform="translate(462,1355)" d="m0 0h13l11 4 6 4 6 8 3 9v17l-4 9-7 8-12 6-15 1-14-7-7-8-4-9-1-12 2-10 6-9 8-7zm1 4-10 5-5 4-5 8-1 5v13l4 10 6 7 9 5 9 1 10-2 7-4 7-8 3-8v-15l-6-12-8-6-9-3z" fill="#2C3B43"/>
<path transform="translate(905,1355)" d="m0 0h10l6 3 5 6 2 4 1 6v45h-6l-1-52-4-5-5-2h-8l-8 4-3 1-4 8-1 4-1 42h-5v-62l4-1 2 10 9-8z" fill="#2B4756"/>
<path transform="translate(1140,1323)" d="m0 0 6 1 6 11 15 28 6 10h3l7-14 14-24 5-10 6-2v3l-14 25-16 28-1 4-1 36h-5l-1-41-3-4-6-12-13-23-5-10-3-4z" fill="#2C3D47"/>
<path transform="translate(519,1356)" d="m0 0h4l1 19v23l2 11 4 5 6 2 9-1 6-4 4-5 3-7 1-36 1-7h4l1 19-1 44-4 1-1-1-1-10-7 8-11 4-11-2-7-6-3-8-1-14v-21z" fill="#2C3B44"/>
<path transform="translate(1284,1356)" d="m0 0h4l1 21 1 28 3 7 4 3 10 1 8-4 6-6 2-6v-26l1-17 5-1 1 19-1 44h-5v-10l-8 8-6 3-9 1-9-3-6-7-2-9-1-28z" fill="#2C3B43"/>
<path transform="translate(670,1324)" d="m0 0h5l1 52-1 59-3 8-6 5-3 1h-10l-9-4-3-2v-3l5 1 7 3h9l6-4 1-4v-62z" fill="#2C404B"/>
<path transform="translate(376,1323)" d="m0 0 5 1 18 34 8 15v2h3l2-5 10-18 14-25 4-4h3l-1 4-16 29-11 19-3 6-1 38-3 1-1-1-1-33-2-9-18-33-10-18z" fill="#2D383F"/>
<path transform="translate(1009,1356)" d="m0 0 5 1 7 16 6 13 8 18 2 5 14-32v-3l2-1 6-14 3-3h3l-3 9-8 18-14 32-11 24-5 10-5 1 4-10 10-23-1-6-7-17-11-24-5-11z" fill="#2C3B43"/>
<path transform="translate(1587,1146)" d="m0 0h21l1 1v38l-5-1-8-6-6-7-4-10-1-6v-8z" fill="#FDFDFD"/>
<path transform="translate(774,1356)" d="m0 0 5 1 1 48 4 8 3 2 8 1 8-2 7-6 3-6 1-27 1-19 4 1v62l-4 1-1-11-8 8-6 3h-13l-7-4-4-6-2-8z" fill="#2C3E48"/>
<path transform="translate(446,1375)" d="m0 0h16v40l-5-1-8-6-4-5-3-9v-13l3-5z" fill="#FDFDFD"/>
<path transform="translate(1605,1356)" d="m0 0 5 1 16 36 7 16 5-10 16-38 4-5 3 1-4 10-4 9-15 34-15 33-4 7h-5l9-19 6-13v-6l-15-33-7-17-2-3z" fill="#2D3A42"/>
<path transform="translate(1229,1359)" d="m0 0h11l10 4 8 7 1 5-2 1h-27l-2-1v39h-1v-39l-6 1h-12l3-6 7-7z" fill="#FCFCFC"/>
<path transform="translate(1621,1373)" d="m0 0h28l-1 5-13 30-2 2-7-14-9-21z" fill="#FCFCFC"/>
<path transform="translate(720,1359)" d="m0 0h10l9 3 9 8 2 5-3 1h-46v-4l6-7 9-5z" fill="#F9F9F9"/>
<path transform="translate(1023,1373)" d="m0 0h30l-6 16-9 20-2 1-7-17-7-16z" fill="#FCFCFC"/>
<path transform="translate(1490,1334)" d="m0 0 2 4 11 34v2l-10 1h-17l2-9 11-31z" fill="#FBFBFB"/>
<path transform="translate(1379,1050)" d="m0 0 2 4v14h56l11 1v1h-67v75l6-1h8l1-2 4 1 24 1v1l-29 1h-14v36l-4-1h3l-1-3v-32l-9 1h-29l-5 1v-3h43v-75h-37l-1-2h38z" fill="#E9E9EA"/>
<path transform="translate(3,1604)" d="m0 0h77v7h-78v-6z" fill="#FEFEFE"/>
<path transform="translate(1763,1604)" d="m0 0h75v7h-75z" fill="#FEFEFE"/>
<path transform="translate(1610,1604)" d="m0 0h75v7h-75z" fill="#FEFEFE"/>
<path transform="translate(1534,1604)" d="m0 0h75v7h-75z" fill="#FEFEFE"/>
<path transform="translate(1457,1604)" d="m0 0h75v7h-75z" fill="#FEFEFE"/>
<path transform="translate(1381,1604)" d="m0 0h75v7h-75z" fill="#FEFEFE"/>
<path transform="translate(1228,1604)" d="m0 0h75v7h-75z" fill="#FEFEFE"/>
<path transform="translate(387,1604)" d="m0 0h75v7h-75z" fill="#FEFEFE"/>
<path transform="translate(311,1604)" d="m0 0h75v7h-75z" fill="#FEFEFE"/>
<path transform="translate(158,1604)" d="m0 0h75v7h-75z" fill="#FEFEFE"/>
<path transform="translate(1840,1604)" d="m0 0h74v7h-75v-6z" fill="#FEFEFE"/>
<path transform="translate(1305,1604)" d="m0 0h74l1 4-1 3h-75z" fill="#FEFEFE"/>
<path transform="translate(541,1604)" d="m0 0h74v7h-75v-6z" fill="#FEFEFE"/>
<path transform="translate(235,1604)" d="m0 0h74v7h-75v-6z" fill="#FEFEFE"/>
<path transform="translate(1916,1604)" d="m0 0h75l-1 7h-74z" fill="#FEFEFE"/>
<path transform="translate(1687,1604)" d="m0 0h75l-1 7h-74z" fill="#FEFEFE"/>
<path transform="translate(82,1604)" d="m0 0h74l1 2-1 5h-74z" fill="#FEFEFE"/>
<path transform="translate(921,228)" d="m0 0 74 1v1l-27 1h-46l1 124-2 1-1-24v-25l-5 1-23 1-1-3 29-1v-23l1-51h-72l-1 2-1-3 3-1z" fill="#E8E8E9"/>
<path transform="translate(1227,1563)" d="m0 0h1v40l26-1h38l12-1 1 1h24l23 1v1h-47l-1 7h-1v-7h-75v7h-1v-7l-154 1v-3-21l2-1 1 22h71l4-1 1 1h74v-38z" fill="#E9E9EA"/>
<path transform="translate(1073,629)" d="m0 0 2 1v57h36l-1 2h-35v29l-2 1-14-24-4-8h19l-1-29z" fill="#FCFCFC"/>
<path transform="translate(1606,1115)" d="m0 0h3v30h-24l3-12 8-11z" fill="#FDFDFD"/>
<path transform="translate(616,1375)" d="m0 0h1v75h38l-3 2h-37l-76-1-1-1v-29h2v29h75v-74zm-154 45 2 1v29h74v1l-76 1z" fill="#E7E8E9"/>
<path transform="translate(526,1114)" d="m0 0h2l2 21 1 13-25-1-3 2 2-4 9-14 8-12z" fill="#F9F9F9"/>
<path transform="translate(952,1375)" d="m0 0h45l2 5v5h-49l1-9z" fill="#FDFDFD"/>
<path transform="translate(1510,1373)" d="m0 0h20l1 3-11 33-2-2-10-31v-2z" fill="#FCFCFC"/>
<path transform="translate(905,1359)" d="m0 0h8l6 3 4 5v7l-2 2h-19l-12-1-1-3 5-7 8-5z" fill="#FCFCFC"/>
<path transform="translate(1075,384)" d="m0 0h21l-1 5-15 26-4 6-2-3z" fill="#FCFCFC"/>
<path transform="translate(602,1355)" d="m0 0 10 1 3 1v5l-8-2-8 1-6 8-2 5 2 1h-2v44h-5l-1-45 1-17 4-1 1 3v5l5-6z" fill="#2B414D"/>
<path transform="translate(1367,1355)" d="m0 0h7l6 2v5l-8-2-7 1-5 5-2 3-1 6-1 44-4 1-1-1v-63h4l1 8 7-7z" fill="#2A4858"/>
<path transform="translate(1532,1168)" d="m0 0h2v53h44l-3 2h-41v24l-1 49h-1v-74l-7 1h-50l-18-1v-1h75z" fill="#E9E9EA"/>
<path transform="translate(857,1355)" d="m0 0h7l6 3 1 2h-14l-6 4-3 6-1 6-1 43h-5l-1-45 1-17 4-1 1 5v4l7-8z" fill="#2B414D"/>
<path transform="translate(997,553)" d="m0 0h1l1 8v49l66 1 1-2 2 5-69-1v47l-2 2-1-4 1-45h-34l2-3 32 1-1-52-3 2 2-4z" fill="#E8E8EA"/>
<path transform="translate(1449,1375)" d="m0 0h22l-1 5-9 27h-2l-7-19-3-8z" fill="#FCFCFC"/>
<path transform="translate(1512,689)" d="m0 0h20l1 37-3-3-17-29z" fill="#FCFCFC"/>
<path transform="translate(1992,1604)" d="m0 0h56v7h-56z" fill="#FEFEFE"/>
<path transform="translate(1103,763)" d="m0 0h49v77l29-1h18v2h-47v8h-2v-8l-6 1v-2l5-1 1-74-50 1v-2z" fill="#E9E9EA"/>
<path transform="translate(463,1359)" d="m0 0h11v1h-10v13h30v2l-5 1-25-1v41l-3-1 1-40-16 1-3 2 2-5 5-7 10-6z" fill="#E8E8E9"/>
<path transform="translate(1226,1360)" d="m0 0h2l1 13h19l11 1-2 2h-27l-2-1v39h-1v-39l-6 1h-12l3-6 7-7z" fill="#E6E7E9"/>
<path transform="translate(462)" d="m0 0h2l1 77-1 59-2-1v-58h-73v-1h73z" fill="#E9E9EA"/>
<path transform="translate(1380,1357)" d="m0 0h1v15l-1 1h-23l1-6 5-6 4-2 9 1 3 1z" fill="#FBFBFB"/>
<path transform="translate(921,693)" d="m0 0h1v70h17l-1 2h-16v18l-2 4v-22h-45l2-3v2l2-1 41-1v-49z" fill="#E9E9EA"/>
<path transform="translate(768,1204)" d="m0 0h1v17h71l-3 2h-67l-1 73h-1v-73h-19l-1-2h20z" fill="#E9E9EA"/>
<path transform="translate(602,1359)" d="m0 0 7 1 5 1 1 4v8h-23l1-6 6-7z" fill="#FCFCFC"/>
<path transform="translate(1303,1319)" d="m0 0h1v54h20v3h-13l-7-1v40h-1l-1-39h-13l-1-2v-18h1v17h13v-53z" fill="#E8E8E9"/>
<path transform="translate(981,460)" d="m0 0h16l1 25-2 4-14-25z" fill="#FCFCFC"/>
<path transform="translate(921,1533)" d="m0 0h2v69h22l49 1v1h-128l1-2h53z" fill="#E9E9EA"/>
<path transform="translate(1303,1202)" d="m0 0h1v19h31l-3 2h-27l-1 54h-1v-55l-8 1h-52l-1 2v-4h61z" fill="#E9E9EA"/>
<path transform="translate(1073,629)" d="m0 0 2 1v57h36l-1 2h-35v29h-1l-1-16v-13l-17 1-1-3h19l-1-29z" fill="#E9E9EA"/>
<path transform="translate(387,1347)" d="m0 0 3 3 12 22v2l-15-1z" fill="#FCFCFC"/>
<path transform="translate(539,18)" d="m0 0h1l1 59-1 47h-1l-1-46-72-1v-1h73z" fill="#E9E9EA"/>
<path transform="translate(921,1449)" d="m0 0 76 1-2 2h-18l-55-1v71h-1l-1-72z" fill="#E9E9EA"/>
<path transform="translate(1456,1300)" d="m0 0h1v73h14v2h-22l-1 2v-4h8l-1-21v-51z" fill="#E9E9EA"/>
<path transform="translate(1609,1115)" d="m0 0h2l-1 30 43-1v2h-43l1 39h-2l-1-13v-25h-22v-2h23l-1-4z" fill="#E9E9EA"/>
<path transform="translate(458,1361)" d="m0 0h4v13h-16l1-4 5-5z" fill="#FCFCFC"/>
<path transform="translate(1080,1407)" d="m0 0h5l-1 5-8 17-4 10-2 2h-3l2-6z" fill="#2C3F4A"/>
<path transform="translate(1223,1361)" d="m0 0h4v12l-16 1 1-4 7-7z" fill="#FDFDFD"/>
<path transform="translate(1295,307)" d="m0 0h7l1 1 1 10-1 8-3-1-8-13v-4z" fill="#FBFBFB"/>
<path transform="translate(843,822)" d="m0 0h1v18h-12l2-6 6-10z" fill="#FCFCFC"/>
<path transform="translate(669,1359)" d="m0 0h1v17l-54-1-1-2h53z" fill="#E9E9EA"/>
<path transform="translate(692,37)" d="m0 0h1l1 40-2 1-70-1v-1h70z" fill="#E9E9EA"/>
<path transform="translate(1073,1375)" d="m0 0h2l1 45-2 5h-1z" fill="#E9E9EA"/>
<path transform="translate(1536,1372)" d="m0 0 18 1h25l7 1v1l-23 1h-13l-14-1z" fill="#E9E9EA"/>
<path transform="translate(779,1373)" d="m0 0h35l1 2v10h-1v-9h-35z" fill="#E9E9EA"/>
<path transform="translate(1023,1373)" d="m0 0h30l-2 4-5-1h-21l-3 1z" fill="#E9E9EA"/>
<path transform="translate(1024,1448)" d="m0 0 8 1 39 1v1l-71 1-1-2 24-1z" fill="#E9E9EA"/>
<path transform="translate(996,1372)" d="m0 0 1 3-4 1-41-1 2-2h28l14 1z" fill="#E9E9EA"/>
<path transform="translate(922,1367)" d="m0 0h1v7l-2 2h-19l-12-1v-2h31z" fill="#E9E9EA"/>
<path transform="translate(462,304)" d="m0 0 2 1v2l-75-1v-1z" fill="#E9E9EA"/>
<path transform="translate(462,228)" d="m0 0h2v3l-74-1v-1z" fill="#E9E9EA"/>
<path transform="translate(615,73)" d="m0 0 2 3v2l-73-1v-1h71z" fill="#E9E9EA"/>
<path transform="translate(1329,1356)" d="m0 0h1v17h21v2l-21 1v11h-1z" fill="#E9E9EA"/>
<path transform="translate(1229,1373)" d="m0 0h19l11 1-2 2h-27l-2-2z" fill="#E9E9EA"/>
<path transform="translate(1621,1373)" d="m0 0h28l-1 3h-25l-5 1-1-3z" fill="#E9E9EA"/>
<path transform="translate(1181,1372)" d="m0 0 24 1-1 3h-24z" fill="#E9E9EA"/>
<path transform="translate(1510,1373)" d="m0 0h20v3h-22v-2z" fill="#E9E9EA"/>
<path transform="translate(819,1373)" d="m0 0h22v3h-22z" fill="#E9E9EA"/>
<path transform="translate(691,1371)" d="m0 0h2v3h2l-1 2h-18v-2h15z" fill="#E4E6E9"/>
<path transform="translate(1150,1308)" d="m0 0h2v20l-2 2-1-4z" fill="#E9E9EA"/>
<path transform="translate(1145,841)" d="m0 0h5v8h-2l-3-6z" fill="#FBFBFB"/>
</svg>
