<?xml version="1.0" encoding="UTF-8"?>
<svg version="1.1" viewBox="0 0 1752 1238" width="1752" height="1238" xmlns="http://www.w3.org/2000/svg">
<path transform="translate(651,30)" d="m0 0 4 4 15 26 10 17 6 11 14 24 9 15 15 26 6 11 5 9 12 21 11 18 16 28 8 13 12 22 13 22 15 26 9 16 12 22 7 11 6 9 5 10 8 13 2 3 4-1 3-4 6-11 5-8 2-5 3-5 1-2h2l1-6 7-10 3-5 3-7 12-20 12-21 13-21 6-11 7-12 6-11 14-25 9-15 13-23 11-19 9-15 13-21 3-6 7-12 10-17 6-12 14-24 11-19 6-8 4 1 24 42 8 13 13 23 11 19 15 26 6 10 6 12 14 24 16 28 13 22 5 9 3 4 3 7 9 15 7 13 6 9 11 20 3 5 6 9 6 12 6 9 2 5 7 11 6 11 8 13 3 5 2 5 6 10 4 5 6 11 9 16 10 17 6 10 2 4 5 4 19 38 14 24 12 21 12 20 3 4 3 7 4 8 13 22 12 20 9 16 8 11 8 13 13 23 14 24 16 28 9 15 4 7v3l-328 1h-103l-10-1-5-5-14-25-8-13-13-23-9-15-8-14-9-16-4-6-6-11-13-23-7-11-5-10-8-13-10-17-6-12-10-17-8-14-14-24-1-3-3-3-7-14-8-13-7-11-5-10-8-13-6-11-8-14-4-6-5-9-5-7-3 1-16 26-6 11-7 11-13 22-6 11-9 16-6 11-10 17-16 28-15 26-10 18-10 17-12 21-14 24-11 18-24 42-4 8-7 10-9 17-12 21-2 1-57 1-250-1-1 2v-2l-68 1h-30l-29-1 1-5 13-22 15-26 16-28 10-17 8-15 13-21 9-16 14-24 11-20 3-4 5-10 8-13 14-24 16-28 5-9 28-48 13-23 14-25 10-17 15-26 11-19 5-10 4-5 15-27 8-14 13-22 14-24 13-23 13-22 15-26 10-18 20-34 20-35 3-5 10-17 12-22 8-13z" fill="#F6962F"/>
<path transform="translate(651,30)" d="m0 0 4 4 15 26 10 17 6 11 14 24 9 15 15 26 6 11 5 9 12 21 11 18 16 28 8 13 12 22 13 22 15 26 9 16 12 22 7 11 6 9 5 10 8 13 3 5-7 9-12 20-6 11-7 11-13 22-6 11-9 16-6 11-10 17-16 28-15 26-10 18-10 17-12 21-14 24-11 18-24 42-4 8-7 10-9 17-12 21-2 1-57 1-250-1-1 2v-2l-68 1h-30l-29-1 1-5 13-22 15-26 16-28 10-17 8-15 13-21 9-16 14-24 11-20 3-4 5-10 8-13 14-24 16-28 5-9 28-48 13-23 14-25 10-17 15-26 11-19 5-10 4-5 15-27 8-14 13-22 14-24 13-23 13-22 15-26 10-18 20-34 20-35 3-5 10-17 12-22 8-13z" fill="#1F8ABE"/>
<path transform="translate(1093,31)" d="m0 0 4 1 24 42 8 13 13 23 11 19 15 26 6 10 6 12 14 24 16 28 13 22 5 9 3 4 3 7 9 15 7 13 6 9 11 20 3 5 6 9 6 12 6 9 2 5 7 11 6 11 8 13 3 5v4h-436l-7-2 5-5 6-11 4-7 3-4 2-5 3-5 1-2h2l1-6 7-10 3-5 3-7 12-20 12-21 13-21 6-11 7-12 6-11 14-25 9-15 13-23 11-19 9-15 13-21 3-6 7-12 10-17 6-12 14-24 11-19z" fill="#B93233"/>
<path transform="translate(872,410)" d="m0 0 6 1h434l1 3-8 15-6 12-10 16-6 11-6 10-6 11-22 38-14 24-9 16-12 21-11 19-10 17-13 23-8 14-24 40-4 8-12 21-14 24-11 19-10 16-1 3 2 1h-4l-8-13-9-16-8-13-13-23-9-15-8-14-9-16-4-6-6-11-13-23-7-11-5-10-8-13-10-17-6-12-10-17-8-14-14-24-1-3-3-3-7-14-8-13-7-11-5-10-8-13-6-11-8-14-4-6-5-9z" fill="#DE5D2A"/>
<path transform="translate(651,30)" d="m0 0 4 4 15 26 10 17 6 11 14 24 9 15 15 26 6 11 5 9 12 21 11 18 16 28 8 13 12 22 13 22 15 26 9 16 12 22 7 11 6 9 5 10 7 11-1 5-1 1h-348l-84-1 2-5 28-49 5-9 4-7 6-9 12-22 8-14 13-22 14-24 13-23 13-22 15-26 10-18 20-34 20-35 3-5 10-17 12-22 8-13z" fill="#116594"/>
<path transform="translate(429,413)" d="m0 0 5 5 6 8 14 23 6 11 10 18v2h2l6 12 11 19 9 15 2 3v3h2l5 9v3h2l6 12 1 4h2l6 11 5 9 5 8 5 9 9 16 5 9 5 8v2h2l7 14 10 17 11 19 7 12v2h2l6 12 12 21 10 17 6 10 13 22 5 7 3-1v3l-2 1-57 1-250-1-1 2v-2l-68 1h-30l-29-1 1-5 13-22 15-26 16-28 10-17 8-15 13-21 9-16 14-24 11-20 3-4 5-10 8-13 14-24 16-28 5-9 28-48 13-23z" fill="#19827B"/>
<path transform="translate(876,525)" d="m0 0h2l2 9h2l1 6 4 2 1 5 6 9 1 3 2 1 2 6 2 1 2 6 5 7 4 8 5 9 4 7 6 9 3 6 3 5 6 8 3 5 10 18 3 5 6 11 4 7 3 7 6 11 6 10 5 8 6 11 7 12 2 2 2 5 8 13 5 8 3 7 8 13v4l-258 2-44-1-1-3 13-23 9-15 5-9 6-9 2-6h2l2-6 2-2 2-5 3-5 5-9 6-11 10-19 13-23 6-9 3-7 5-6 6-12 4-7h2l1-6 6-6 2-5 2-1 2-6h2l2-7h2l1-6 3-1v-6l4-1 1-5 15-25z" fill="#2E3032"/>
<path transform="translate(1290,931)" d="m0 0 23 1 20 3 10 4 18 8 16 10 7 7 11 9 7 8 5 7v5l-8 6-26 13-12 7-6 1-9-7-3-5-7-7-15-9-14-3h-26l-18 5-8 4-14 10-9 12-5 9-4 11-2 16v19l3 16 5 15 3 5v2l3 1 4 6 9 9 7 5 11 5 8 3 8 1h26l7-1h4l17-9 10-9 6-9 6-14h-57l-9-3v-36l1-9 3-1h126l1 1v29l-6 28-4 10-5 12-6 11-11 14-18 18-20 12-18 7-17 4-6 1h-36l-13-3-23-6-14-6-12-7-12-9-11-9-11-13-9-14-5-10-5-13-2-4-1-13-2-13-1-17 2-20 3-17 4-12 10-19 8-12 8-9 4-4 10-8 14-9 16-8 19-6 22-5 2-1z" fill="#2E3133"/>
<path transform="translate(365,928)" d="m0 0h2l2 7 5 34 9 57 9 60 2 11 5 34 8 54 1 4h-64l-2-1-3-34-6-48-3-32-1-7-4 2-7 11-7 10-8 13-21 31-9 13-13 19h-2l-7-12-8-11-48-72-5-5-8 69-3 21-2 23-1 9-2 3h-52l-10-2 3-24 11-73 10-64 1-9 2-9 6-41 3-25 2-7v-5l3-2 5 5 7 10 12 17 7 10 6 9 7 9 10 15 8 10 2 7h2l4 5 4 8 4 4 4 7 8 11 4 6 3 3 3 5 6 7 5-5 10-14 11-15 10-15 11-15 19-28 12-17 9-13 12-17 4-6z" fill="#2E3133"/>
<path transform="translate(771,909)" d="m0 0h53l1 1 2 22-1 162v97l-7 1h-47l-2-1v-22l-4 2-7 8-8 6-10 5-12 4-13 2-15-1-11-3-6-3-5-2-13-10-14-14-7-11-5-13-4-17-1-9v-19l2-12 4-12 8-16 11-12 12-9 16-8 11-3h29l16 6 11 6 9 8 5 5 1-7v-130zm-50 158-5 2-8 5-3 2v2l-3 1-7 11-2 10v15l3 12 6 10 10 8 10 4 3 1h15l10-4 9-7 7-9 3-6 2-8v-13l-3-12-5-9-5-6-9-6-6-3z" fill="#2F3133"/>
<path transform="translate(1536,1021)" d="m0 0h12l19 2 18 6 19 10 12 11 8 9 8 14 4 12 3 15v15l-3 15-5 15-5 9-8 10-10 10-15 10-18 7-18 4h-28l-22-5-13-5-16-10-8-7-10-13-8-16-4-13-1-7v-18l2-14 5-15 6-11 13-15 8-7 16-9 19-7zm-7 46-11 7-7 8-7 14v24l1 3h2l1 7 11 12 6 5h8l1 3h15l5-2 7-2 11-8 7-11 3-11 1-13-2-2-2-10-7-12-11-8-11-4z" fill="#2E3133"/>
<path transform="translate(1039,1019)" d="m0 0h15l18 3 15 4 15 8 6 7 2 1v2l4 2 6 13 2 12 1 30v33l1 47-2 9-1 1-13 1h-12l-20-1-5-1v-20l-8 7-9 7-15 6-9 3-8 2h-23l-16-5-11-7-8-7-6-10-4-13v-14l3-14 6-10 7-8 9-6 12-6 17-4 9-1h10l21 2 21 5 1-3-3-16-4-8-10-5-15-1-14 1-15 4-15 6-7 1-10-19-7-14 1-4 16-8 22-7 19-4zm-8 101-9 3-6 4-5 6-1 2v12l4 7 8 4 4 1h14l14-4 6-4 7-8 2-5 1-12-9-3-17-3z" fill="#2E3133"/>
<path transform="translate(507,1022)" d="m0 0h32l16 3 8 4 7 3 11 7 12 12 6 7 7 16 3 10 1 10v22l-3 3-51 1h-71l4 10 6 9 8 7 9 4 13 3h8l15-4 11-11 1-2h7l29 10 10 2-2 6-8 11-4 6-12 10-11 7-11 4-16 3h-27l-1-1-17-2-12-5-8-4-10-7-11-9-10-13-8-16-4-13-2-16 1-15 8-26 5-7 4-7 11-11 9-7 16-8 16-5zm4 41-11 5-8 7-6 9v2l2 1h70l-1-8-7-8-6-5-8-3z" fill="#2E3133"/>
<path transform="translate(869,1026)" d="m0 0h53l1 77v89h-52l-3-3v-86z" fill="#2F3233"/>
<path transform="translate(889,933)" d="m0 0h12l11 4 8 6 6 9 2 5v12l-3 8-7 8-9 6-8 2-14-1-9-4-6-4v-2h-2l-6-12v-14l6-12 9-7 6-3z" fill="#2E3133"/>
<path transform="translate(554,1117)" d="m0 0h52l1 2-51 1h-65v-1z" fill="#338472"/>
<path transform="translate(1071,1170)" d="m0 0h1v19h48l1 2-13 1h-12l-20-1-5-1z" fill="#338472"/>
</svg>
